<?xml version="1.0" encoding="UTF-8" standalone="no"?>
<!DOCTYPE svg PUBLIC "-//W3C//DTD SVG 1.1//EN" "http://www.w3.org/Graphics/SVG/1.1/DTD/svg11.dtd">
<svg xmlns="http://www.w3.org/2000/svg" version="1.1" viewBox="0.00 0.00 512.00 512.00">
<g stroke-width="2.00" fill="none" stroke-linecap="butt">
<path stroke="#716d67" vector-effect="non-scaling-stroke" d="
  M 350.39 68.41
  Q 343.40 62.77 335.27 62.44
  A 0.39 0.39 0.0 0 0 334.90 62.98
  L 337.35 68.91
  A 1.91 1.78 29.0 0 1 337.47 69.28
  L 339.53 77.68
  A 0.60 0.07 83.7 0 0 339.55 77.77
  L 340.33 92.66"
/>
<path stroke="#898783" vector-effect="non-scaling-stroke" d="
  M 340.33 92.66
  Q 338.82 93.70 337.91 95.55"
/>
<path stroke="#3e3f3d" vector-effect="non-scaling-stroke" d="
  M 337.91 95.55
  Q 338.04 87.50 337.34 79.55
  Q 335.39 57.18 314.80 48.70
  C 309.49 46.51 305.44 44.72 300.60 43.39
  Q 267.76 34.34 233.31 39.44
  Q 216.24 41.97 200.16 48.49
  Q 189.76 52.70 185.71 57.00
  C 175.03 68.31 175.01 83.52 175.62 98.34
  Q 176.19 112.07 180.01 120.80
  Q 185.92 134.27 199.99 141.61"
/>
<path stroke="#898783" vector-effect="non-scaling-stroke" d="
  M 199.99 141.61
  Q 199.56 142.12 199.45 142.75"
/>
<path stroke="#716d67" vector-effect="non-scaling-stroke" d="
  M 199.45 142.75
  C 192.68 141.05 187.19 134.97 182.55 129.02
  C 180.09 125.86 179.22 122.73 177.41 119.53
  Q 175.89 116.82 174.99 111.72
  Q 173.25 101.86 173.07 96.69
  C 172.95 93.36 173.17 87.00 173.15 83.11
  A 0.35 0.35 0.0 0 0 172.59 82.83
  L 162.51 90.36"
/>
<path stroke="#3e3f3d" vector-effect="non-scaling-stroke" d="
  M 162.51 90.36
  L 162.76 70.38"
/>
<path stroke="#615e58" vector-effect="non-scaling-stroke" d="
  M 193.15 29.74
  Q 191.55 39.16 191.67 49.79
  A 0.71 0.71 0.0 0 0 192.65 50.44
  L 192.95 50.32
  A 1.68 1.68 0.0 0 0 193.98 48.95
  L 196.31 27.51"
/>
<path stroke="#3e3f3d" vector-effect="non-scaling-stroke" d="
  M 319.17 29.26
  L 317.21 29.28
  A 0.18 0.18 0.0 0 0 317.03 29.46
  L 317.16 39.57
  A 7.61 0.46 89.3 0 0 317.71 47.18
  L 319.11 47.16
  A 7.61 0.46 89.3 0 0 319.48 39.55
  L 319.35 29.44
  A 0.18 0.18 0.0 0 0 319.17 29.26"
/>
<path stroke="#4b4c4d" vector-effect="non-scaling-stroke" d="
  M 337.91 95.55
  C 338.47 114.16 332.49 128.74 316.29 139.06
  Q 312.74 141.33 308.38 142.39
  Q 295.39 145.57 283.23 147.25
  Q 271.02 148.93 257.69 148.78
  Q 235.23 148.53 215.98 145.54
  Q 208.79 144.43 199.99 141.61"
/>
<path stroke="#3a4c50" vector-effect="non-scaling-stroke" d="
  M 218.32 109.18
  C 227.32 105.48 230.65 94.87 230.11 85.98
  Q 229.48 75.53 219.26 70.42
  C 213.35 67.46 205.87 71.44 201.79 75.82
  C 196.69 81.30 195.87 90.20 198.34 97.19
  C 201.22 105.38 209.26 112.90 218.32 109.18"
/>
<path stroke="#3a4c50" vector-effect="non-scaling-stroke" d="
  M 309.93 106.64
  C 320.08 97.56 319.94 82.09 309.62 73.14
  C 306.21 70.19 304.29 69.99 299.87 69.61
  C 294.27 69.14 289.33 73.71 286.38 77.65
  C 282.48 82.86 283.98 93.09 286.36 98.50
  C 290.39 107.65 301.05 114.58 309.93 106.64"
/>
<path stroke="#3a4c50" vector-effect="non-scaling-stroke" d="
  M 257.76 131.93
  C 266.70 132.07 274.24 129.15 280.92 122.92
  Q 282.02 121.90 282.36 120.59
  A 0.50 0.50 0.0 0 0 281.65 120.03
  C 274.02 124.04 266.75 127.28 257.84 127.13
  C 248.93 126.99 241.77 123.52 234.28 119.25
  A 0.50 0.50 0.0 0 0 233.55 119.79
  Q 233.84 121.11 234.90 122.17
  C 241.38 128.62 248.83 131.78 257.76 131.93"
/>
<path stroke="#333231" vector-effect="non-scaling-stroke" d="
  M 351.00 70.18
  Q 352.00 91.07 351.16 111.91
  Q 350.80 120.72 349.92 127.59
  Q 348.91 135.41 348.12 143.23
  A 2.99 2.88 -30.9 0 1 347.89 144.08
  L 346.30 147.60"
/>
<path stroke="#333231" vector-effect="non-scaling-stroke" d="
  M 320.75 172.95
  L 316.34 171.86
  A 2.54 2.53 -81.8 0 1 314.42 169.29
  Q 314.59 165.11 313.78 161.92
  A 3.96 3.75 39.1 0 1 313.65 160.93
  L 313.56 146.99
  A 0.54 0.47 40.9 0 0 313.54 146.85
  L 313.10 144.46
  A 0.65 0.65 0.0 0 0 312.36 143.94
  L 311.73 144.04"
/>
<path stroke="#7d7a77" vector-effect="non-scaling-stroke" d="
  M 311.73 144.04
  Q 312.17 143.25 313.14 142.88
  C 317.20 141.33 321.25 139.19 324.55 136.10
  Q 334.37 126.91 337.56 115.15
  C 338.31 112.35 338.98 110.27 339.25 107.59
  Q 339.97 100.18 340.33 92.66"
/>
<path stroke="#333231" vector-effect="non-scaling-stroke" d="
  M 353.00 71.99
  Q 354.61 83.24 354.58 97.81
  C 354.56 105.51 354.14 110.74 354.02 117.39
  Q 353.84 127.77 351.52 138.53
  A 1.86 1.39 -36.7 0 1 351.43 138.83
  Q 350.51 141.08 350.09 143.24
  A 0.41 0.41 0.0 0 0 350.64 143.70
  L 356.16 141.50"
/>
<path stroke="#333231" vector-effect="non-scaling-stroke" d="
  M 162.51 90.36
  Q 162.74 101.46 163.17 112.68
  Q 163.28 115.53 163.20 119.33
  Q 163.10 124.04 163.38 125.98
  Q 165.04 137.68 168.02 148.50"
/>
<path stroke="#333231" vector-effect="non-scaling-stroke" d="
  M 161.14 143.85
  Q 162.20 143.46 162.94 143.67
  A 0.88 0.87 85.5 0 0 163.97 142.46
  Q 161.45 136.97 161.17 133.18
  C 160.60 125.57 159.82 118.58 159.62 111.26
  Q 159.16 94.89 159.29 84.25
  Q 159.34 79.84 160.26 72.23"
/>
<path stroke="#333231" vector-effect="non-scaling-stroke" d="
  M 364.84 87.21
  Q 364.79 91.27 364.87 95.24
  Q 365.00 101.15 364.83 103.26
  Q 364.64 105.52 364.67 110.57
  C 364.70 115.83 363.74 122.35 363.00 127.99
  A 4.34 4.09 -33.0 0 1 362.77 128.93
  Q 361.17 133.40 360.46 138.06"
/>
<path stroke="#333231" vector-effect="non-scaling-stroke" d="
  M 152.01 134.55
  Q 152.12 133.71 151.54 133.21"
/>
<path stroke="#333231" vector-effect="non-scaling-stroke" d="
  M 151.29 132.02
  Q 151.56 131.15 150.99 131.22"
/>
<path stroke="#333231" vector-effect="non-scaling-stroke" d="
  M 150.91 131.05
  Q 150.93 131.08 150.95 131.10
  A 0.07 0.03 37.4 0 0 151.05 131.12
  Q 150.78 127.16 150.09 122.87
  C 148.81 114.82 149.04 104.35 148.91 98.40
  Q 148.86 96.16 149.47 90.14
  Q 149.89 86.00 149.98 81.84"
/>
<path stroke="#7d7a77" vector-effect="non-scaling-stroke" d="
  M 199.45 142.75
  L 200.53 143.38"
/>
<path stroke="#5c5852" vector-effect="non-scaling-stroke" d="
  M 200.53 143.38
  Q 199.37 143.45 198.55 145.02"
/>
<path stroke="#333231" vector-effect="non-scaling-stroke" d="
  M 198.55 145.02
  L 198.27 169.30
  A 0.71 0.71 0.0 0 1 197.74 169.99
  L 192.21 171.38
  A 0.21 0.20 -7.2 0 0 192.05 171.58
  L 192.05 171.59
  A 0.19 0.18 -5.8 0 0 192.23 171.73
  L 196.31 171.71
  A 0.07 0.07 0.0 0 1 196.33 171.85
  L 192.54 172.75"
/>
<path stroke="#333231" vector-effect="non-scaling-stroke" d="
  M 183.53 166.39
  Q 182.30 163.43 179.17 162.69"
/>
<path stroke="#4b4c4d" vector-effect="non-scaling-stroke" d="
  M 311.73 144.04
  Q 311.11 144.06 311.28 144.25"
/>
<path stroke="#74726e" vector-effect="non-scaling-stroke" d="
  M 311.28 144.25
  Q 301.44 147.35 291.22 148.70
  Q 288.84 149.01 279.75 149.92
  Q 269.38 150.96 251.02 150.69
  Q 242.17 150.56 238.39 149.89
  C 232.75 148.90 227.31 149.42 221.89 148.56
  C 214.52 147.39 207.32 146.13 200.53 143.38"
/>
<path stroke="#2a2a28" vector-effect="non-scaling-stroke" d="
  M 311.28 144.25
  Q 311.42 144.24 311.35 144.49
  Q 310.56 147.42 310.59 150.50
  Q 310.65 156.67 310.62 162.63"
/>
<path stroke="#4d4943" vector-effect="non-scaling-stroke" d="
  M 310.62 162.63
  Q 296.75 169.79 279.17 172.60
  Q 239.38 178.98 203.06 165.46
  A 1.29 1.27 86.0 0 1 202.37 164.85
  Q 201.94 164.04 201.81 163.01"
/>
<path stroke="#2a2a28" vector-effect="non-scaling-stroke" d="
  M 201.81 163.01
  Q 201.46 155.57 201.14 148.06
  Q 201.06 146.15 200.72 145.37
  Q 200.03 143.76 198.55 145.02"
/>
<path stroke="#232323" vector-effect="non-scaling-stroke" d="
  M 300.48 188.57
  Q 291.61 192.61 288.94 192.95
  Q 284.42 193.53 280.77 193.87
  C 274.74 194.44 268.05 196.41 262.84 196.63
  C 247.37 197.28 227.95 198.05 214.63 188.51"
/>
<path stroke="#232323" vector-effect="non-scaling-stroke" d="
  M 201.81 163.01
  Q 201.44 170.27 205.41 174.70
  Q 209.00 178.72 216.49 180.02
  Q 222.05 180.99 228.06 180.55
  C 234.36 180.09 238.72 180.30 243.73 181.18
  Q 247.25 181.80 252.15 181.60
  Q 273.73 180.73 276.88 180.80
  Q 284.54 180.99 292.18 181.34
  C 299.57 181.68 307.77 179.38 311.32 172.44
  A 1.22 1.20 56.5 0 0 311.45 171.78
  L 310.62 162.63"
/>
<path stroke="#333231" vector-effect="non-scaling-stroke" d="
  M 231.1660 185.3831
  A 2.01 0.82 -158.8 0 0 232.7435 186.8745
  A 2.01 0.82 -158.8 0 0 234.9140 186.8369
  A 2.01 0.82 -158.8 0 0 233.3365 185.3455
  A 2.01 0.82 -158.8 0 0 231.1660 185.3831"
/>
<path stroke="#333231" vector-effect="non-scaling-stroke" d="
  M 503.49 198.01
  L 502.24 200.18
  A 1.08 1.07 21.1 0 0 502.95 201.77
  Q 507.74 202.78 512.00 199.93"
/>
<path stroke="#232323" vector-effect="non-scaling-stroke" d="
  M 512.00 211.69
  L 500.42 211.98
  A 2.34 2.13 -47.7 0 0 500.00 212.02
  Q 493.80 213.09 487.52 215.01
  Q 485.46 215.64 483.06 217.55
  A 1.47 1.42 -13.7 0 0 482.55 218.36
  Q 480.86 226.05 484.23 232.44
  A 1.42 1.42 0.0 0 0 486.64 232.59
  L 490.69 226.86
  A 0.46 0.46 0.0 0 1 491.52 227.18
  Q 490.94 232.42 487.49 237.12
  A 1.09 1.09 0.0 0 0 487.92 238.75
  C 495.27 242.10 504.65 242.12 512.00 239.96"
/>
<path stroke="#2a2a28" vector-effect="non-scaling-stroke" d="
  M 469.42 224.93
  L 470.09 223.20"
/>
<path stroke="#333231" vector-effect="non-scaling-stroke" d="
  M 470.09 223.20
  Q 470.29 222.70 470.74 222.62
  Q 471.09 222.55 471.60 222.84
  Q 472.90 223.57 474.19 223.63
  A 1.83 1.82 -88.0 0 0 476.11 221.83
  Q 476.18 216.91 476.88 210.17
  C 476.99 209.05 476.54 206.68 474.91 206.83
  A 1.12 1.11 -77.5 0 0 474.04 207.39
  Q 472.16 210.65 472.15 214.22
  Q 472.14 215.74 469.87 219.70"
/>
<path stroke="#2a2a28" vector-effect="non-scaling-stroke" d="
  M 469.87 219.70
  Q 465.15 223.18 458.82 224.80
  C 456.02 225.51 455.07 226.19 454.49 228.85
  Q 453.80 232.01 451.73 234.89
  A 0.60 0.60 0.0 0 0 451.61 235.25
  Q 451.60 236.13 452.89 236.83"
/>
<path stroke="#232323" vector-effect="non-scaling-stroke" d="
  M 447.93 237.52
  Q 448.08 236.53 448.69 235.40"
/>
<path stroke="#2a2a28" vector-effect="non-scaling-stroke" d="
  M 448.69 235.40
  Q 450.88 229.92 450.69 223.60"
/>
<path stroke="#3a3a39" vector-effect="non-scaling-stroke" d="
  M 450.69 223.60
  Q 450.59 221.43 450.85 219.18
  Q 451.11 216.93 450.90 214.81
  Q 450.69 212.69 450.55 209.44
  Q 450.26 203.12 448.46 197.70"
/>
<path stroke="#3a3a39" vector-effect="non-scaling-stroke" d="
  M 65.19 197.32
  Q 62.30 211.18 63.88 225.54"
/>
<path stroke="#333231" vector-effect="non-scaling-stroke" d="
  M 63.88 225.54
  L 65.24 232.89"
/>
<path stroke="#232323" vector-effect="non-scaling-stroke" d="
  M 65.24 232.89
  Q 65.44 234.27 66.18 235.50"
/>
<path stroke="#2a2a28" vector-effect="non-scaling-stroke" d="
  M 66.18 235.50
  Q 66.42 236.65 67.04 237.53"
/>
<path stroke="#232323" vector-effect="non-scaling-stroke" d="
  M 67.04 237.53
  Q 67.13 238.02 66.99 238.55"
/>
<path stroke="#333231" vector-effect="non-scaling-stroke" d="
  M 56.31 240.45
  L 61.85 238.24
  A 1.28 1.27 60.3 0 0 62.38 236.28
  Q 61.10 234.61 61.07 232.94
  A 1.85 1.80 33.9 0 0 60.94 232.32
  L 59.65 229.10
  A 4.30 4.30 0.0 0 0 56.33 226.46
  C 51.48 225.71 46.96 225.08 42.91 222.25"
/>
<path stroke="#4b4c4d" vector-effect="non-scaling-stroke" d="
  M 42.91 222.25
  C 41.12 217.31 41.14 212.40 40.85 206.46
  A 0.64 0.64 0.0 0 0 40.21 205.85
  L 37.37 205.85
  A 1.86 1.86 0.0 0 1 36.02 205.27
  C 34.08 203.25 30.49 199.68 27.49 199.88
  A 1.82 1.82 0.0 0 0 25.84 202.11
  L 27.92 211.02"
/>
<path stroke="#333231" vector-effect="non-scaling-stroke" d="
  M 27.92 211.02
  Q 29.60 216.09 29.37 221.25
  Q 29.33 222.31 30.42 230.57
  A 2.55 2.53 28.9 0 0 30.66 231.39
  L 33.73 237.63
  A 1.24 1.23 -6.6 0 0 34.57 238.29
  L 37.16 238.87
  A 0.92 0.84 -21.2 0 1 37.42 238.97
  Q 38.33 239.54 38.20 240.55"
/>
<path stroke="#56514d" vector-effect="non-scaling-stroke" d="
  M 339.11 185.29
  C 332.91 187.66 328.05 189.66 327.73 195.96
  Q 327.49 200.70 327.50 205.60"
/>
<path stroke="#232323" vector-effect="non-scaling-stroke" d="
  M 327.50 205.60
  Q 325.91 201.33 325.16 194.12
  Q 324.75 190.16 322.14 186.81"
/>
<path stroke="#232323" vector-effect="non-scaling-stroke" d="
  M 194.39 189.69
  C 187.39 190.99 188.81 198.35 187.18 204.02
  Q 184.58 213.09 180.90 221.50
  A 2.49 2.39 82.1 0 1 180.27 222.37
  Q 179.00 223.50 177.64 226.24
  A 0.78 0.77 18.4 0 1 176.81 226.65
  Q 172.20 225.80 170.48 224.77
  Q 168.51 223.58 166.82 223.95
  A 1.65 1.65 0.0 0 0 165.74 226.39
  L 169.93 233.64
  A 0.99 0.99 0.0 0 1 169.95 234.59
  Q 168.34 237.66 166.11 239.78"
/>
<path stroke="#232323" vector-effect="non-scaling-stroke" d="
  M 138.30 239.21
  Q 136.91 235.65 136.66 233.82
  Q 135.40 224.78 135.80 215.69"
/>
<path stroke="#4d4943" vector-effect="non-scaling-stroke" d="
  M 135.80 215.69
  L 136.36 225.73
  A 0.50 0.50 0.0 0 0 136.87 226.20
  C 146.31 226.00 152.73 224.67 160.59 218.87
  A 0.80 0.79 -28.5 0 0 160.87 217.94
  Q 159.14 213.31 157.24 208.27
  Q 156.32 205.79 156.37 202.25
  A 0.35 0.35 0.0 0 1 156.90 201.95
  Q 157.96 202.56 158.10 203.46
  Q 159.00 209.17 161.60 212.80
  A 3.94 3.88 -68.4 0 1 162.26 214.35
  Q 162.56 216.00 164.62 217.37
  A 1.04 1.01 -41.0 0 0 165.65 217.43
  Q 171.78 214.35 173.88 212.03
  C 180.77 204.42 180.05 194.37 176.07 185.26"
/>
<path stroke="#2a2a28" vector-effect="non-scaling-stroke" d="
  M 135.80 215.69
  L 137.62 198.68"
/>
<path stroke="#646059" vector-effect="non-scaling-stroke" d="
  M 143.3500 213.7164
  A 2.06 1.35 -179.9 0 0 145.4076 215.0700
  A 2.06 1.35 -179.9 0 0 147.4700 213.7236
  A 2.06 1.35 -179.9 0 0 145.4124 212.3700
  A 2.06 1.35 -179.9 0 0 143.3500 213.7164"
/>
<path stroke="#333231" vector-effect="non-scaling-stroke" d="
  M 375.22 198.53
  Q 377.61 202.50 377.62 208.50
  Q 377.65 220.39 377.24 227.46"
/>
<path stroke="#6d6863" vector-effect="non-scaling-stroke" d="
  M 377.24 227.46
  L 376.62 209.21
  A 1.02 1.01 17.4 0 0 376.21 208.44
  Q 367.59 202.13 356.80 206.54"
/>
<path stroke="#333231" vector-effect="non-scaling-stroke" d="
  M 356.80 206.54
  L 358.25 200.33
  A 0.68 0.67 -62.1 0 0 358.06 199.70
  L 357.74 199.37
  A 0.58 0.58 0.0 0 0 356.78 199.63
  Q 355.44 204.54 354.23 209.71
  Q 353.34 213.55 351.23 216.79
  A 3.74 3.49 88.0 0 1 350.57 217.55
  L 345.48 222.04
  A 1.23 1.19 -64.5 0 1 344.65 222.35
  L 334.61 222.09
  A 1.04 0.98 58.7 0 1 334.10 221.95
  Q 332.73 221.11 331.86 218.69
  Q 328.91 210.46 327.50 205.60"
/>
<path stroke="#3a3a39" vector-effect="non-scaling-stroke" d="
  M 356.80 206.54
  Q 355.81 209.66 354.82 213.12
  Q 353.92 216.29 351.03 220.25"
/>
<path stroke="#232323" vector-effect="non-scaling-stroke" d="
  M 351.03 220.25
  Q 348.84 220.67 347.38 221.92
  A 1.51 1.47 75.0 0 0 346.88 222.81
  Q 346.49 225.34 345.11 227.52
  C 342.70 231.33 342.52 235.08 343.08 239.48"
/>
<path stroke="#333231" vector-effect="non-scaling-stroke" d="
  M 323.82 240.61
  L 322.95 230.66
  A 4.80 4.52 -57.3 0 0 322.79 229.80
  L 321.67 225.89
  A 0.35 0.34 58.5 0 0 321.09 225.75
  Q 320.82 226.03 320.66 225.96
  Q 319.36 225.38 319.10 224.01
  Q 317.21 213.88 314.60 205.24"
/>
<path stroke="#232323" vector-effect="non-scaling-stroke" d="
  M 314.60 205.24
  L 313.98 200.94
  A 0.49 0.49 0.0 0 1 314.58 200.39
  Q 315.46 200.58 316.04 201.03
  A 0.29 0.29 0.0 0 0 316.47 200.65
  L 315.65 199.22
  A 0.83 0.83 0.0 0 0 314.84 198.81
  Q 313.19 198.99 313.38 200.61
  C 313.35 199.44 313.68 198.14 314.13 197.02"
/>
<path stroke="#6d6863" vector-effect="non-scaling-stroke" d="
  M 111.56 188.21
  Q 118.66 197.68 118.87 209.49
  C 119.13 223.83 112.56 229.31 98.98 230.55
  Q 80.48 232.25 63.88 225.54"
/>
<path stroke="#646059" vector-effect="non-scaling-stroke" d="
  M 450.69 223.60
  C 432.46 233.91 413.04 232.68 395.09 222.82
  A 1.15 1.14 -80.8 0 1 394.53 222.04
  C 393.12 214.63 393.02 206.89 392.17 199.77
  Q 391.70 195.84 393.32 189.45"
/>
<path stroke="#78756e" vector-effect="non-scaling-stroke" d="
  M 438.87 215.84
  C 442.73 211.72 440.98 206.84 436.13 204.64
  Q 423.94 199.12 409.95 203.60
  C 402.34 206.03 400.65 213.82 407.88 218.18
  C 416.27 223.23 431.71 223.46 438.87 215.84"
/>
<path stroke="#56514d" vector-effect="non-scaling-stroke" d="
  M 121.98 189.89
  Q 121.80 201.30 120.96 212.55
  C 120.20 222.61 119.86 229.17 110.55 232.81
  Q 106.53 234.38 103.12 234.71
  Q 84.06 236.56 65.24 232.89"
/>
<path stroke="#56514d" vector-effect="non-scaling-stroke" d="
  M 314.60 205.24
  C 311.30 198.62 308.29 197.29 301.47 197.87
  A 3.67 3.62 -56.7 0 0 300.63 198.05
  Q 295.60 199.79 289.03 201.10
  Q 266.01 205.70 242.44 203.98"
/>
<path stroke="#4d4943" vector-effect="non-scaling-stroke" d="
  M 242.44 203.98
  Q 233.61 203.48 224.89 201.79
  Q 216.41 200.16 214.18 198.87
  Q 208.11 195.34 201.44 195.74"
/>
<path stroke="#2a2a28" vector-effect="non-scaling-stroke" d="
  M 199.56 198.09
  L 199.63 203.23"
/>
<path stroke="#333231" vector-effect="non-scaling-stroke" d="
  M 199.63 203.23
  L 197.89 209.01"
/>
<path stroke="#3a3a39" vector-effect="non-scaling-stroke" d="
  M 197.89 209.01
  L 194.58 222.69"
/>
<path stroke="#333231" vector-effect="non-scaling-stroke" d="
  M 194.58 222.69
  Q 191.62 225.33 191.44 228.87
  Q 191.10 235.49 190.12 239.69"
/>
<path stroke="#232323" vector-effect="non-scaling-stroke" d="
  M 190.12 239.69
  Q 189.99 240.40 189.87 240.45"
/>
<path stroke="#4d4943" vector-effect="non-scaling-stroke" d="
  M 448.69 235.40
  Q 442.46 236.36 428.47 237.41
  Q 408.74 238.90 393.54 229.74
  A 0.96 0.95 -75.2 0 1 393.08 228.94
  C 392.96 220.32 393.24 212.22 391.62 204.39
  C 390.83 200.55 389.93 195.60 389.79 190.80"
/>
<path stroke="#232323" vector-effect="non-scaling-stroke" d="
  M 124.86 191.45
  Q 123.05 199.80 123.81 204.20
  Q 125.74 215.43 124.83 226.89
  C 124.54 230.54 124.61 234.51 124.74 237.25
  Q 124.98 242.17 120.94 245.00"
/>
<path stroke="#4d4943" vector-effect="non-scaling-stroke" d="
  M 67.04 237.53
  Q 89.28 239.64 111.53 237.30
  A 2.40 2.35 -63.9 0 0 112.55 236.94
  L 119.22 232.75
  A 1.88 1.84 -8.1 0 0 120.00 231.73
  L 121.41 227.26
  A 3.15 3.08 54.7 0 0 121.54 226.44
  L 121.94 200.92
  A 0.07 0.06 5.7 0 0 121.88 200.86
  A 0.14 0.14 0.0 0 0 121.74 200.99
  Q 121.09 212.20 120.91 217.27
  C 120.44 230.63 115.74 234.75 102.72 235.88
  C 91.33 236.87 78.18 237.53 66.18 235.50"
/>
<path stroke="#232323" vector-effect="non-scaling-stroke" d="
  M 391.51 245.03
  Q 388.80 241.03 389.24 237.38
  Q 389.50 235.33 390.01 232.83
  A 8.42 8.20 49.4 0 0 390.16 230.50
  L 388.50 208.33
  A 4.50 4.33 -40.0 0 1 388.67 206.75
  Q 389.55 203.77 389.36 203.04
  Q 387.86 197.40 388.67 191.72"
/>
<path stroke="#232323" vector-effect="non-scaling-stroke" d="
  M 375.66 239.20
  Q 377.31 234.80 377.17 232.68"
/>
<path stroke="#3a3a39" vector-effect="non-scaling-stroke" d="
  M 377.17 232.68
  L 377.24 227.46"
/>
<path stroke="#5c5852" vector-effect="non-scaling-stroke" d="
  M 242.44 203.98
  C 230.87 204.13 218.22 202.03 209.34 201.53
  Q 204.51 201.25 199.63 203.23"
/>
<path stroke="#4d4943" vector-effect="non-scaling-stroke" d="
  M 212.07 198.00
  Q 207.19 195.86 202.02 196.69
  A 0.37 0.36 -8.4 0 0 201.72 197.09
  L 201.72 197.11
  A 0.43 0.43 0.0 0 0 202.18 197.50
  Q 207.18 197.05 212.02 198.49
  A 0.04 0.03 15.7 0 0 212.07 198.47
  L 212.16 198.23
  A 0.18 0.18 0.0 0 0 212.07 198.00"
/>
<path stroke="#333231" vector-effect="non-scaling-stroke" d="
  M 318.04 280.02
  C 316.57 279.21 315.07 279.57 313.99 279.15
  Q 311.02 277.98 308.12 275.42
  Q 305.37 272.99 298.73 267.55
  Q 298.26 267.17 296.55 264.27
  A 1.15 1.12 -12.8 0 0 295.64 263.71
  Q 294.98 263.65 293.99 264.19
  A 1.03 1.03 0.0 0 1 292.52 263.60
  L 291.68 261.03"
/>
<path stroke="#6d6863" vector-effect="non-scaling-stroke" d="
  M 291.68 261.03
  C 302.07 253.98 309.91 244.78 308.85 231.37
  C 306.96 207.66 278.92 205.58 260.71 205.40
  Q 229.30 205.09 197.89 209.01"
/>
<path stroke="#7d7a77" vector-effect="non-scaling-stroke" d="
  M 42.91 222.25
  Q 45.96 227.88 47.37 233.74
  A 1.75 1.75 0.0 0 1 45.90 235.88
  Q 40.02 236.65 33.89 233.97
  A 1.99 1.99 0.0 0 1 33.05 233.27
  C 28.71 226.85 32.46 217.82 27.92 211.02"
/>
<path stroke="#5d5954" vector-effect="non-scaling-stroke" d="
  M 377.17 232.68
  C 373.70 237.45 368.98 236.94 363.64 237.10
  Q 354.69 237.38 346.62 235.94
  A 0.93 0.93 0.0 0 1 345.85 234.90
  Q 346.91 227.05 351.03 220.25"
/>
<path stroke="#3a3a39" vector-effect="non-scaling-stroke" d="
  M 291.68 261.03
  Q 290.19 258.33 288.62 255.62
  Q 281.60 243.50 267.24 242.80
  Q 258.82 242.40 246.97 242.69
  C 238.86 242.89 233.34 242.98 229.41 249.39
  Q 223.06 259.73 220.92 262.84"
/>
<path stroke="#6d6863" vector-effect="non-scaling-stroke" d="
  M 220.92 262.84
  C 211.14 257.76 203.09 251.55 197.73 241.80
  Q 194.65 236.20 192.26 230.49
  A 2.08 2.07 43.9 0 1 192.23 228.98
  L 194.58 222.69"
/>
<path stroke="#5c5852" vector-effect="non-scaling-stroke" d="
  M 470.09 223.20
  Q 470.05 222.88 470.14 222.60
  A 0.64 0.63 28.7 0 0 469.93 221.90
  Q 468.81 221.03 469.87 219.70"
/>
<path stroke="#5d5954" vector-effect="non-scaling-stroke" d="
  M 512.00 213.00
  L 507.40 215.95
  A 1.04 1.01 75.7 0 0 506.93 216.76
  Q 506.84 218.41 507.32 219.59
  A 1.35 1.34 89.4 0 0 508.09 220.35
  L 512.00 221.89"
/>
<path stroke="#232323" vector-effect="non-scaling-stroke" d="
  M 512.00 222.86
  L 497.08 229.15
  A 0.35 0.35 0.0 0 0 497.15 229.81
  Q 501.48 230.62 504.79 228.50
  A 1.48 1.48 0.0 0 1 506.65 228.72
  L 509.50 231.68"
/>
<path stroke="#56514d" vector-effect="non-scaling-stroke" d="
  M 509.40 232.55
  L 506.82 229.81
  A 0.82 0.81 33.6 0 0 505.47 230.08
  L 502.40 238.10
  A 0.79 0.79 0.0 0 0 503.20 239.17
  L 509.77 238.68
  A 1.06 1.06 0.0 0 0 510.74 237.80
  L 511.24 234.90"
/>
<path stroke="#333231" vector-effect="non-scaling-stroke" d="
  M 220.92 262.84
  Q 216.76 265.98 212.89 269.14
  C 207.91 273.19 203.45 275.32 198.67 278.58
  A 1.30 1.23 26.5 0 1 197.95 278.80
  L 194.35 278.81"
/>
<path stroke="#56514d" vector-effect="non-scaling-stroke" d="
  M 189.50 252.75
  Q 189.70 251.96 189.42 251.20"
/>
<path stroke="#56514d" vector-effect="non-scaling-stroke" d="
  M 190.07 243.32
  Q 190.64 241.71 190.12 239.69"
/>
<path stroke="#333231" vector-effect="non-scaling-stroke" d="
  M 318.45 295.92
  L 312.08 301.80
  A 2.21 2.03 -77.1 0 1 311.60 302.13
  Q 309.30 303.33 307.66 304.34
  Q 305.84 305.47 303.33 306.54
  Q 296.71 309.36 289.01 312.25
  A 0.72 0.72 0.0 0 0 288.60 313.20
  C 291.42 319.89 292.34 326.59 296.09 333.81
  A 4.31 3.76 -72.1 0 1 296.36 334.44
  L 297.07 336.65
  A 1.19 1.19 0.0 0 0 298.82 337.29
  Q 301.90 335.43 306.06 331.31
  Q 307.63 329.76 313.13 325.66
  Q 315.34 324.01 317.99 321.37
  Q 320.20 319.16 322.71 316.91"
/>
<path stroke="#333231" vector-effect="non-scaling-stroke" d="
  M 323.70 327.73
  Q 321.23 330.67 318.77 333.01
  Q 314.95 336.64 312.32 338.75
  C 305.51 344.23 298.38 351.38 292.62 355.85
  Q 286.59 360.53 281.83 364.37
  A 1.63 1.60 77.8 0 0 281.28 365.24
  C 279.20 374.16 277.64 389.29 284.52 396.52"
/>
<path stroke="#232323" vector-effect="non-scaling-stroke" d="
  M 284.52 396.52
  L 287.50 397.02"
/>
<path stroke="#000407" vector-effect="non-scaling-stroke" d="
  M 287.50 397.02
  C 287.80 400.07 288.18 403.49 288.01 406.31
  Q 287.74 410.79 288.69 415.12
  A 1.26 1.24 -32.0 0 1 288.43 416.20
  Q 287.40 417.42 285.46 417.95"
/>
<path stroke="#232323" vector-effect="non-scaling-stroke" d="
  M 285.46 417.95
  L 280.06 417.98
  A 0.88 0.88 0.0 0 0 279.33 418.37
  Q 274.56 425.31 273.40 433.51
  Q 271.06 450.07 273.86 466.52
  C 274.55 470.63 275.66 476.41 280.61 477.16
  A 0.75 0.74 -70.1 0 0 281.37 476.80
  Q 284.54 471.24 290.91 468.49"
/>
<path stroke="#333231" vector-effect="non-scaling-stroke" d="
  M 290.91 468.49
  Q 308.10 462.54 326.36 466.17
  C 331.00 467.09 337.10 468.71 339.23 473.07
  Q 340.38 475.42 341.81 477.31
  A 0.39 0.39 0.0 0 0 342.51 477.09
  L 343.44 461.64"
/>
<path stroke="#2a2a28" vector-effect="non-scaling-stroke" d="
  M 343.90 486.34
  Q 339.93 482.59 336.41 478.98
  Q 334.53 477.04 333.21 476.54
  Q 331.47 475.89 329.26 475.45
  Q 313.32 472.33 297.94 476.72
  Q 294.89 477.59 291.37 479.98
  A 3.23 3.19 -70.1 0 1 290.51 480.39
  L 288.20 481.09
  A 3.10 3.10 0.0 0 0 286.04 483.70
  C 285.67 486.97 285.25 490.27 283.93 494.09
  Q 282.47 498.28 281.35 502.45"
/>
<path stroke="#232323" vector-effect="non-scaling-stroke" d="
  M 272.22 366.15
  L 277.79 361.97
  A 1.08 0.96 -4.7 0 0 278.01 361.74
  L 284.55 352.48
  A 1.92 1.39 -57.8 0 1 284.72 352.27
  L 287.75 348.93"
/>
<path stroke="#333231" vector-effect="non-scaling-stroke" d="
  M 287.75 348.93
  Q 293.04 344.32 294.47 341.73
  C 296.40 338.24 294.37 334.26 292.65 330.89
  Q 291.28 328.21 287.45 314.93
  Q 287.28 314.33 287.35 314.10
  Q 287.53 313.42 287.46 313.28
  A 0.62 0.62 0.0 0 0 286.73 312.96
  C 284.15 313.68 279.49 314.47 275.79 314.77
  Q 262.89 315.79 249.50 315.63
  Q 236.12 315.47 228.07 313.87
  Q 224.07 313.08 212.49 308.78
  C 208.01 307.12 203.77 304.38 199.57 301.92
  Q 197.82 300.90 194.44 296.28"
/>
<path stroke="#3a3a39" vector-effect="non-scaling-stroke" d="
  M 228.89 269.49
  Q 233.18 271.78 237.16 271.67
  C 241.23 271.55 243.84 272.03 249.75 272.41
  Q 254.00 272.68 258.25 272.59
  Q 271.20 272.31 272.03 272.27
  C 277.28 271.99 283.75 271.00 286.11 265.94
  C 288.69 260.42 287.33 255.77 283.42 251.22
  C 278.69 245.71 270.93 244.12 264.00 243.92
  Q 253.10 243.60 240.09 244.35
  C 233.83 244.71 230.37 250.01 228.39 255.26
  C 226.40 260.57 225.03 264.40 228.24 268.91
  A 1.93 1.85 85.4 0 0 228.89 269.49"
/>
<path stroke="#56514d" vector-effect="non-scaling-stroke" d="
  M 287.75 348.93
  Q 279.03 352.08 270.11 354.33
  C 256.32 357.81 243.48 356.77 229.66 352.43"
/>
<path stroke="#333231" vector-effect="non-scaling-stroke" d="
  M 229.66 352.43
  L 218.33 339.96
  A 2.03 2.02 41.2 0 1 218.16 337.45
  Q 221.74 332.28 223.93 326.50
  Q 226.66 319.31 227.90 315.46
  A 0.30 0.29 -70.6 0 0 227.73 315.10
  L 227.46 315.00
  A 0.62 0.62 0.0 0 0 226.64 315.38
  Q 224.20 322.51 221.44 329.38
  C 220.29 332.22 218.33 334.89 216.98 337.28
  A 0.66 0.66 0.0 0 1 216.17 337.57
  Q 213.64 336.62 211.69 334.34
  Q 209.43 331.69 204.46 328.31
  A 6.77 6.16 -2.7 0 1 203.42 327.45
  Q 200.41 324.41 196.52 322.80"
/>
<path stroke="#232323" vector-effect="non-scaling-stroke" d="
  M 229.66 352.43
  Q 230.73 353.89 230.99 355.49
  A 2.41 2.34 -70.0 0 0 231.52 356.67
  L 233.07 358.49
  A 1.11 0.61 29.0 0 1 233.17 358.65
  Q 235.63 364.20 240.86 366.25"
/>
<path stroke="#2a2a28" vector-effect="non-scaling-stroke" d="
  M 235.34 495.78
  L 233.56 490.50
  A 5.17 4.88 21.6 0 0 233.12 489.56
  L 229.98 484.40
  A 0.26 0.26 0.0 0 1 230.37 484.07
  L 231.47 485.03"
/>
<path stroke="#232323" vector-effect="non-scaling-stroke" d="
  M 231.47 485.03
  Q 233.28 484.13 232.43 481.44"
/>
<path stroke="#2a2a28" vector-effect="non-scaling-stroke" d="
  M 232.43 481.44
  Q 232.77 480.27 231.71 479.83
  C 230.46 479.30 229.26 478.53 228.51 477.23
  Q 226.13 473.11 221.33 476.37
  A 1.01 0.97 75.2 0 0 220.91 477.13
  L 220.88 477.70
  A 0.69 0.69 0.0 0 1 219.86 478.27
  L 216.87 476.65
  A 3.20 3.16 62.9 0 0 215.81 476.30
  Q 215.51 476.24 205.34 474.92
  Q 199.31 474.14 195.13 474.69
  Q 189.92 475.37 185.05 476.79
  Q 184.30 477.00 183.66 476.27
  Q 182.98 475.51 181.70 475.96
  Q 179.63 476.69 178.30 478.04
  Q 174.23 482.15 169.97 487.00"
/>
<path stroke="#232323" vector-effect="non-scaling-stroke" d="
  M 170.08 481.14
  L 176.63 471.09"
/>
<path stroke="#333231" vector-effect="non-scaling-stroke" d="
  M 176.63 471.09
  Q 188.29 463.61 204.89 465.45
  Q 210.14 466.03 215.06 466.41"
/>
<path stroke="#232323" vector-effect="non-scaling-stroke" d="
  M 215.06 466.41
  L 224.80 469.50"
/>
<path stroke="#333231" vector-effect="non-scaling-stroke" d="
  M 224.80 469.50
  Q 228.07 471.23 230.49 474.18
  A 0.79 0.78 -27.1 0 0 231.30 474.44
  C 239.74 472.18 240.66 463.55 241.09 455.57
  Q 241.96 439.57 238.59 428.05
  Q 236.57 421.11 231.78 418.27
  A 1.52 1.48 56.3 0 0 230.84 418.07
  C 228.83 418.34 226.73 416.33 225.44 415.00
  A 1.21 1.18 -63.2 0 1 225.11 413.96
  C 225.93 408.63 227.02 403.71 226.42 398.24
  A 0.32 0.31 79.3 0 1 226.65 397.90
  Q 226.79 397.86 227.00 397.61
  A 0.20 0.20 0.0 0 0 226.80 397.29
  L 225.52 397.60
  A 0.42 0.40 54.4 0 1 225.20 397.54
  Q 225.02 397.42 224.99 397.40
  A 0.31 0.31 0.0 0 0 224.56 397.72
  Q 224.90 400.81 223.65 403.07
  A 0.70 0.70 0.0 0 1 222.35 402.87
  C 220.09 391.52 205.10 392.22 196.29 394.46
  A 1.40 1.26 -48.1 0 1 196.01 394.49
  L 193.73 394.37
  A 1.01 0.98 19.9 0 0 192.91 394.74
  Q 191.14 396.92 191.10 399.77
  Q 190.99 408.22 191.14 414.52
  A 3.18 2.97 37.8 0 0 191.27 415.33
  Q 191.79 417.00 193.81 418.80
  C 196.43 421.14 199.27 423.41 203.21 423.69
  Q 211.60 424.27 218.70 420.20
  Q 219.35 419.83 221.48 417.57
  A 0.51 0.50 -57.3 0 1 222.04 417.44
  L 222.53 417.62
  A 0.36 0.36 0.0 0 1 222.68 418.18
  L 218.94 422.79"
/>
<path stroke="#3a3a39" vector-effect="non-scaling-stroke" d="
  M 218.94 422.79
  C 211.44 426.37 201.27 427.16 194.24 422.02"
/>
<path stroke="#333231" vector-effect="non-scaling-stroke" d="
  M 194.24 422.02
  Q 190.92 419.30 189.83 415.43
  A 0.68 0.67 -10.3 0 0 189.12 414.94
  L 180.63 415.69"
/>
<path stroke="#232323" vector-effect="non-scaling-stroke" d="
  M 182.21 412.55
  Q 184.87 413.77 187.29 414.77
  Q 187.70 414.94 188.05 414.86
  A 0.19 0.19 0.0 0 0 188.06 414.49
  Q 187.55 414.34 187.37 414.12
  Q 186.36 412.85 183.71 408.68"
/>
<path stroke="#333231" vector-effect="non-scaling-stroke" d="
  M 187.49 388.58
  L 189.90 391.74
  A 1.32 1.31 -33.2 0 0 191.59 392.09
  Q 200.59 387.07 211.32 388.71
  C 216.83 389.55 221.03 392.16 224.03 396.58
  A 1.49 1.48 -23.9 0 0 225.62 397.19
  L 229.82 396.16
  A 1.51 1.51 0.0 0 0 230.91 395.11
  C 233.53 385.86 235.40 374.16 232.65 364.68
  A 3.45 3.43 -80.2 0 0 231.37 362.86
  C 227.02 359.67 223.49 357.24 219.55 353.81
  Q 207.57 343.36 197.38 335.12
  C 194.70 332.95 192.61 330.14 190.42 327.41"
/>
<path stroke="#333231" vector-effect="non-scaling-stroke" d="
  M 326.22 389.26
  Q 325.01 390.02 323.61 392.13
  A 1.21 1.20 37.7 0 1 321.79 392.36
  C 318.32 389.20 314.65 388.60 309.58 388.33
  Q 297.68 387.70 289.50 396.50"
/>
<path stroke="#56514d" vector-effect="non-scaling-stroke" d="
  M 289.50 396.50
  Q 284.42 394.58 283.35 388.53
  Q 280.81 374.14 282.11 364.94
  A 0.33 0.33 0.0 0 0 281.82 364.56
  L 281.79 364.56
  A 0.33 0.33 0.0 0 0 281.42 364.86
  Q 280.06 377.53 282.21 389.45
  Q 282.80 392.74 284.52 396.52"
/>
<path stroke="#232323" vector-effect="non-scaling-stroke" d="
  M 289.50 396.50
  L 287.50 397.02"
/>
<path stroke="#333231" vector-effect="non-scaling-stroke" d="
  M 330.14 410.24
  Q 328.77 410.09 328.54 411.40
  A 1.01 0.95 -20.1 0 1 328.30 411.88
  Q 326.82 413.56 325.02 413.83
  A 1.68 1.68 0.0 0 0 323.76 414.75
  L 321.54 419.22
  A 0.28 0.25 -14.9 0 1 321.48 419.31
  Q 319.77 421.25 317.38 422.67"
/>
<path stroke="#3e3f3d" vector-effect="non-scaling-stroke" d="
  M 317.38 422.67
  Q 311.69 425.48 304.86 424.52"
/>
<path stroke="#333231" vector-effect="non-scaling-stroke" d="
  M 304.86 424.52
  Q 299.23 424.69 294.47 422.23
  A 3.26 3.22 -8.4 0 1 293.68 421.65
  L 289.45 417.43
  A 1.04 1.02 -26.2 0 0 288.58 417.14
  Q 287.61 417.27 286.81 417.98"
/>
<path stroke="#232323" vector-effect="non-scaling-stroke" d="
  M 286.81 417.98
  L 285.46 417.95"
/>
<path stroke="#2a2a28" vector-effect="non-scaling-stroke" d="
  M 292.61 400.46
  L 292.20 412.84"
/>
<path stroke="#3a3a39" vector-effect="non-scaling-stroke" d="
  M 292.20 412.84
  Q 291.44 418.59 297.28 420.83
  C 304.01 423.42 312.22 424.21 318.48 419.92
  C 320.99 418.19 322.50 415.85 322.64 413.01
  Q 323.01 405.00 322.56 398.47
  Q 322.35 395.47 319.58 394.78
  C 311.67 392.80 302.46 391.95 295.65 396.64
  Q 293.78 397.93 292.61 400.46"
/>
<path stroke="#646059" vector-effect="non-scaling-stroke" d="
  M 292.20 412.84
  Q 293.45 406.59 292.61 400.46"
/>
<path stroke="#56514d" vector-effect="non-scaling-stroke" d="
  M 224.80 469.50
  Q 220.89 465.90 215.57 465.79
  Q 215.55 465.79 215.56 465.79
  C 215.66 465.83 215.78 465.85 215.86 465.89
  A 0.14 0.14 0.0 0 1 215.84 466.15
  L 215.06 466.41"
/>
<path stroke="#56514d" vector-effect="non-scaling-stroke" d="
  M 176.63 471.09
  Q 174.01 472.32 171.24 471.82
  A 0.82 0.82 0.0 0 1 170.57 471.03
  L 170.52 460.92"
/>
<path stroke="#6d6863" vector-effect="non-scaling-stroke" d="
  M 194.24 422.02
  C 191.31 429.16 187.88 439.71 190.97 447.00
  Q 195.22 457.00 206.30 457.16
  C 214.24 457.28 218.92 450.41 219.93 443.22
  Q 221.17 434.50 218.94 422.79"
/>
<path stroke="#56514d" vector-effect="non-scaling-stroke" d="
  M 290.91 468.49
  C 280.36 453.17 281.76 434.91 286.81 417.98"
/>
<path stroke="#716d67" vector-effect="non-scaling-stroke" d="
  M 304.86 424.52
  C 303.62 432.48 303.14 441.60 306.21 449.12
  C 307.42 452.06 310.38 456.03 313.93 455.24
  C 319.08 454.08 320.46 446.27 320.34 441.80
  Q 320.07 432.09 317.38 422.67"
/>
<path stroke="#646059" vector-effect="non-scaling-stroke" d="
  M 345.98 499.20
  C 333.50 493.86 323.08 490.68 309.07 492.37
  C 304.89 492.87 298.92 494.49 296.54 498.35
  C 293.11 503.91 300.27 509.22 303.81 512.00"
/>
<path stroke="#4d4943" vector-effect="non-scaling-stroke" d="
  M 232.43 481.44
  Q 232.34 483.35 231.47 485.03"
/>
<path stroke="#646059" vector-effect="non-scaling-stroke" d="
  M 203.49 512.00
  C 208.75 509.57 219.04 502.96 213.41 497.08
  C 211.19 494.75 207.58 494.27 204.00 493.67
  C 197.09 492.53 185.46 490.67 181.06 497.10
  C 178.35 501.06 180.75 506.15 184.27 508.75
  Q 186.88 510.67 190.07 512.00"
/>
<path stroke="#4d4943" vector-effect="non-scaling-stroke" d="
  M 212.86 476.13
  A 0.11 0.11 0.0 0 0 212.75 476.02
  A 0.11 0.11 0.0 0 0 212.64 476.13
  A 0.11 0.11 0.0 0 0 212.75 476.24
  A 0.11 0.11 0.0 0 0 212.86 476.13"
/>
<path stroke="#4d4943" vector-effect="non-scaling-stroke" d="
  M 216.2902 477.7385
  A 0.33 0.12 -178.0 0 0 216.6158 477.8699
  A 0.33 0.12 -178.0 0 0 216.9498 477.7615
  A 0.33 0.12 -178.0 0 0 216.6242 477.6301
  A 0.33 0.12 -178.0 0 0 216.2902 477.7385"
/>
</g>
<path fill="#7c7972" d="
  M 350.39 68.41
  Q 343.40 62.77 335.27 62.44
  A 0.39 0.39 0.0 0 0 334.90 62.98
  L 337.35 68.91
  A 1.91 1.78 29.0 0 1 337.47 69.28
  L 339.53 77.68
  A 0.60 0.07 83.7 0 0 339.55 77.77
  L 340.33 92.66
  Q 338.82 93.70 337.91 95.55
  Q 338.04 87.50 337.34 79.55
  Q 335.39 57.18 314.80 48.70
  C 309.49 46.51 305.44 44.72 300.60 43.39
  Q 267.76 34.34 233.31 39.44
  Q 216.24 41.97 200.16 48.49
  Q 189.76 52.70 185.71 57.00
  C 175.03 68.31 175.01 83.52 175.62 98.34
  Q 176.19 112.07 180.01 120.80
  Q 185.92 134.27 199.99 141.61
  Q 199.56 142.12 199.45 142.75
  C 192.68 141.05 187.19 134.97 182.55 129.02
  C 180.09 125.86 179.22 122.73 177.41 119.53
  Q 175.89 116.82 174.99 111.72
  Q 173.25 101.86 173.07 96.69
  C 172.95 93.36 173.17 87.00 173.15 83.11
  A 0.35 0.35 0.0 0 0 172.59 82.83
  L 162.51 90.36
  L 162.76 70.38
  Q 170.10 44.68 193.15 29.74
  Q 191.55 39.16 191.67 49.79
  A 0.71 0.71 0.0 0 0 192.65 50.44
  L 192.95 50.32
  A 1.68 1.68 0.0 0 0 193.98 48.95
  L 196.31 27.51
  Q 200.30 24.44 204.87 22.10
  C 217.90 15.46 232.67 11.74 246.85 10.46
  C 265.33 8.78 283.79 11.81 301.47 18.79
  C 309.06 21.79 313.88 25.19 321.92 30.49
  C 335.56 39.48 345.13 52.78 350.39 68.41
  Z
  M 319.17 29.26
  L 317.21 29.28
  A 0.18 0.18 0.0 0 0 317.03 29.46
  L 317.16 39.57
  A 7.61 0.46 89.3 0 0 317.71 47.18
  L 319.11 47.16
  A 7.61 0.46 89.3 0 0 319.48 39.55
  L 319.35 29.44
  A 0.18 0.18 0.0 0 0 319.17 29.26
  Z"
/>
<path fill="#46423e" d="
  M 196.31 27.51
  L 193.98 48.95
  A 1.68 1.68 0.0 0 1 192.95 50.32
  L 192.65 50.44
  A 0.71 0.71 0.0 0 1 191.67 49.79
  Q 191.55 39.16 193.15 29.74
  L 196.31 27.51
  Z"
/>
<path fill="#000407" d="
  M 319.17 29.26
  A 0.18 0.18 0.0 0 1 319.35 29.44
  L 319.48 39.55
  A 7.61 0.46 89.3 0 1 319.11 47.16
  L 317.71 47.18
  A 7.61 0.46 89.3 0 1 317.16 39.57
  L 317.03 29.46
  A 0.18 0.18 0.0 0 1 317.21 29.28
  L 319.17 29.26
  Z"
/>
<path fill="#000407" d="
  M 337.91 95.55
  C 338.47 114.16 332.49 128.74 316.29 139.06
  Q 312.74 141.33 308.38 142.39
  Q 295.39 145.57 283.23 147.25
  Q 271.02 148.93 257.69 148.78
  Q 235.23 148.53 215.98 145.54
  Q 208.79 144.43 199.99 141.61
  Q 185.92 134.27 180.01 120.80
  Q 176.19 112.07 175.62 98.34
  C 175.01 83.52 175.03 68.31 185.71 57.00
  Q 189.76 52.70 200.16 48.49
  Q 216.24 41.97 233.31 39.44
  Q 267.76 34.34 300.60 43.39
  C 305.44 44.72 309.49 46.51 314.80 48.70
  Q 335.39 57.18 337.34 79.55
  Q 338.04 87.50 337.91 95.55
  Z
  M 218.32 109.18
  C 227.32 105.48 230.65 94.87 230.11 85.98
  Q 229.48 75.53 219.26 70.42
  C 213.35 67.46 205.87 71.44 201.79 75.82
  C 196.69 81.30 195.87 90.20 198.34 97.19
  C 201.22 105.38 209.26 112.90 218.32 109.18
  Z
  M 309.93 106.64
  C 320.08 97.56 319.94 82.09 309.62 73.14
  C 306.21 70.19 304.29 69.99 299.87 69.61
  C 294.27 69.14 289.33 73.71 286.38 77.65
  C 282.48 82.86 283.98 93.09 286.36 98.50
  C 290.39 107.65 301.05 114.58 309.93 106.64
  Z
  M 257.76 131.93
  C 266.70 132.07 274.24 129.15 280.92 122.92
  Q 282.02 121.90 282.36 120.59
  A 0.50 0.50 0.0 0 0 281.65 120.03
  C 274.02 124.04 266.75 127.28 257.84 127.13
  C 248.93 126.99 241.77 123.52 234.28 119.25
  A 0.50 0.50 0.0 0 0 233.55 119.79
  Q 233.84 121.11 234.90 122.17
  C 241.38 128.62 248.83 131.78 257.76 131.93
  Z"
/>
<path fill="#65605b" d="
  M 350.39 68.41
  L 351.00 70.18
  Q 352.00 91.07 351.16 111.91
  Q 350.80 120.72 349.92 127.59
  Q 348.91 135.41 348.12 143.23
  A 2.99 2.88 -30.9 0 1 347.89 144.08
  L 346.30 147.60
  Q 337.09 164.01 320.75 172.95
  L 316.34 171.86
  A 2.54 2.53 -81.8 0 1 314.42 169.29
  Q 314.59 165.11 313.78 161.92
  A 3.96 3.75 39.1 0 1 313.65 160.93
  L 313.56 146.99
  A 0.54 0.47 40.9 0 0 313.54 146.85
  L 313.10 144.46
  A 0.65 0.65 0.0 0 0 312.36 143.94
  L 311.73 144.04
  Q 312.17 143.25 313.14 142.88
  C 317.20 141.33 321.25 139.19 324.55 136.10
  Q 334.37 126.91 337.56 115.15
  C 338.31 112.35 338.98 110.27 339.25 107.59
  Q 339.97 100.18 340.33 92.66
  L 339.55 77.77
  A 0.60 0.07 83.7 0 1 339.53 77.68
  L 337.47 69.28
  A 1.91 1.78 29.0 0 0 337.35 68.91
  L 334.90 62.98
  A 0.39 0.39 0.0 0 1 335.27 62.44
  Q 343.40 62.77 350.39 68.41
  Z"
/>
<path fill="#739398" d="
  M 230.11 85.98
  C 230.65 94.87 227.32 105.48 218.32 109.18
  C 209.26 112.90 201.22 105.38 198.34 97.19
  C 195.87 90.20 196.69 81.30 201.79 75.82
  C 205.87 71.44 213.35 67.46 219.26 70.42
  Q 229.48 75.53 230.11 85.98
  Z"
/>
<path fill="#739398" d="
  M 309.93 106.64
  C 301.05 114.58 290.39 107.65 286.36 98.50
  C 283.98 93.09 282.48 82.86 286.38 77.65
  C 289.33 73.71 294.27 69.14 299.87 69.61
  C 304.29 69.99 306.21 70.19 309.62 73.14
  C 319.94 82.09 320.08 97.56 309.93 106.64
  Z"
/>
<path fill="#000407" d="
  M 353.00 71.99
  Q 354.61 83.24 354.58 97.81
  C 354.56 105.51 354.14 110.74 354.02 117.39
  Q 353.84 127.77 351.52 138.53
  A 1.86 1.39 -36.7 0 1 351.43 138.83
  Q 350.51 141.08 350.09 143.24
  A 0.41 0.41 0.0 0 0 350.64 143.70
  L 356.16 141.50
  L 346.30 147.60
  L 347.89 144.08
  A 2.99 2.88 -30.9 0 0 348.12 143.23
  Q 348.91 135.41 349.92 127.59
  Q 350.80 120.72 351.16 111.91
  Q 352.00 91.07 351.00 70.18
  Q 351.78 71.29 353.00 71.99
  Z"
/>
<path fill="#000407" d="
  M 162.76 70.38
  L 162.51 90.36
  Q 162.74 101.46 163.17 112.68
  Q 163.28 115.53 163.20 119.33
  Q 163.10 124.04 163.38 125.98
  Q 165.04 137.68 168.02 148.50
  Q 165.75 146.13 161.14 143.85
  Q 162.20 143.46 162.94 143.67
  A 0.88 0.87 85.5 0 0 163.97 142.46
  Q 161.45 136.97 161.17 133.18
  C 160.60 125.57 159.82 118.58 159.62 111.26
  Q 159.16 94.89 159.29 84.25
  Q 159.34 79.84 160.26 72.23
  L 162.76 70.38
  Z"
/>
<path fill="#65605b" d="
  M 353.00 71.99
  Q 355.27 73.49 358.25 75.26
  C 363.23 78.20 363.93 81.67 364.84 87.21
  Q 364.79 91.27 364.87 95.24
  Q 365.00 101.15 364.83 103.26
  Q 364.64 105.52 364.67 110.57
  C 364.70 115.83 363.74 122.35 363.00 127.99
  A 4.34 4.09 -33.0 0 1 362.77 128.93
  Q 361.17 133.40 360.46 138.06
  L 356.16 141.50
  L 350.64 143.70
  A 0.41 0.41 0.0 0 1 350.09 143.24
  Q 350.51 141.08 351.43 138.83
  A 1.86 1.39 -36.7 0 0 351.52 138.53
  Q 353.84 127.77 354.02 117.39
  C 354.14 110.74 354.56 105.51 354.58 97.81
  Q 354.61 83.24 353.00 71.99
  Z"
/>
<path fill="#65605b" d="
  M 160.26 72.23
  Q 159.34 79.84 159.29 84.25
  Q 159.16 94.89 159.62 111.26
  C 159.82 118.58 160.60 125.57 161.17 133.18
  Q 161.45 136.97 163.97 142.46
  A 0.88 0.87 85.5 0 1 162.94 143.67
  Q 162.20 143.46 161.14 143.85
  C 157.10 141.37 153.38 139.00 152.01 134.55
  Q 152.12 133.71 151.54 133.21
  Q 151.29 132.62 151.29 132.02
  Q 151.56 131.15 150.99 131.22
  Q 150.78 130.99 150.91 131.05
  Q 150.93 131.08 150.95 131.10
  A 0.07 0.03 37.4 0 0 151.05 131.12
  Q 150.78 127.16 150.09 122.87
  C 148.81 114.82 149.04 104.35 148.91 98.40
  Q 148.86 96.16 149.47 90.14
  Q 149.89 86.00 149.98 81.84
  Q 150.58 78.22 152.66 76.91
  Q 156.37 74.58 160.26 72.23
  Z"
/>
<path fill="#65605b" d="
  M 199.45 142.75
  L 200.53 143.38
  Q 199.37 143.45 198.55 145.02
  L 198.27 169.30
  A 0.71 0.71 0.0 0 1 197.74 169.99
  L 192.21 171.38
  A 0.21 0.20 -7.2 0 0 192.05 171.58
  L 192.05 171.59
  A 0.19 0.18 -5.8 0 0 192.23 171.73
  L 196.31 171.71
  A 0.07 0.07 0.0 0 1 196.33 171.85
  L 192.54 172.75
  L 183.53 166.39
  Q 182.30 163.43 179.17 162.69
  Q 173.08 156.58 168.02 148.50
  Q 165.04 137.68 163.38 125.98
  Q 163.10 124.04 163.20 119.33
  Q 163.28 115.53 163.17 112.68
  Q 162.74 101.46 162.51 90.36
  L 172.59 82.83
  A 0.35 0.35 0.0 0 1 173.15 83.11
  C 173.17 87.00 172.95 93.36 173.07 96.69
  Q 173.25 101.86 174.99 111.72
  Q 175.89 116.82 177.41 119.53
  C 179.22 122.73 180.09 125.86 182.55 129.02
  C 187.19 134.97 192.68 141.05 199.45 142.75
  Z"
/>
<path fill="#000407" d="
  M 149.98 81.84
  Q 149.89 86.00 149.47 90.14
  Q 148.86 96.16 148.91 98.40
  C 149.04 104.35 148.81 114.82 150.09 122.87
  Q 150.78 127.16 151.05 131.12
  A 0.07 0.03 37.4 0 1 150.95 131.10
  Q 150.93 131.08 150.91 131.05
  Q 143.70 106.54 149.98 81.84
  Z"
/>
<path fill="#000407" d="
  M 364.84 87.21
  Q 367.23 100.07 366.84 105.01
  C 366.44 110.22 366.36 115.86 365.50 120.64
  Q 363.88 129.65 360.46 138.06
  Q 361.17 133.40 362.77 128.93
  A 4.34 4.09 -33.0 0 0 363.00 127.99
  C 363.74 122.35 364.70 115.83 364.67 110.57
  Q 364.64 105.52 364.83 103.26
  Q 365.00 101.15 364.87 95.24
  Q 364.79 91.27 364.84 87.21
  Z"
/>
<path fill="#959493" d="
  M 340.33 92.66
  Q 339.97 100.18 339.25 107.59
  C 338.98 110.27 338.31 112.35 337.56 115.15
  Q 334.37 126.91 324.55 136.10
  C 321.25 139.19 317.20 141.33 313.14 142.88
  Q 312.17 143.25 311.73 144.04
  Q 311.11 144.06 311.28 144.25
  Q 301.44 147.35 291.22 148.70
  Q 288.84 149.01 279.75 149.92
  Q 269.38 150.96 251.02 150.69
  Q 242.17 150.56 238.39 149.89
  C 232.75 148.90 227.31 149.42 221.89 148.56
  C 214.52 147.39 207.32 146.13 200.53 143.38
  L 199.45 142.75
  Q 199.56 142.12 199.99 141.61
  Q 208.79 144.43 215.98 145.54
  Q 235.23 148.53 257.69 148.78
  Q 271.02 148.93 283.23 147.25
  Q 295.39 145.57 308.38 142.39
  Q 312.74 141.33 316.29 139.06
  C 332.49 128.74 338.47 114.16 337.91 95.55
  Q 338.82 93.70 340.33 92.66
  Z"
/>
<path fill="#739398" d="
  M 257.84 127.13
  C 266.75 127.28 274.02 124.04 281.65 120.03
  A 0.50 0.50 0.0 0 1 282.36 120.59
  Q 282.02 121.90 280.92 122.92
  C 274.24 129.15 266.70 132.07 257.76 131.93
  C 248.83 131.78 241.38 128.62 234.90 122.17
  Q 233.84 121.11 233.55 119.79
  A 0.50 0.50 0.0 0 1 234.28 119.25
  C 241.77 123.52 248.93 126.99 257.84 127.13
  Z"
/>
<path fill="#000407" d="
  M 151.29 132.02
  Q 151.01 131.69 150.99 131.22
  Q 151.56 131.15 151.29 132.02
  Z"
/>
<path fill="#000407" d="
  M 152.01 134.55
  Q 151.57 134.00 151.54 133.21
  Q 152.12 133.71 152.01 134.55
  Z"
/>
<path fill="#534f48" d="
  M 200.53 143.38
  C 207.32 146.13 214.52 147.39 221.89 148.56
  C 227.31 149.42 232.75 148.90 238.39 149.89
  Q 242.17 150.56 251.02 150.69
  Q 269.38 150.96 279.75 149.92
  Q 288.84 149.01 291.22 148.70
  Q 301.44 147.35 311.28 144.25
  Q 311.42 144.24 311.35 144.49
  Q 310.56 147.42 310.59 150.50
  Q 310.65 156.67 310.62 162.63
  Q 296.75 169.79 279.17 172.60
  Q 239.38 178.98 203.06 165.46
  A 1.29 1.27 86.0 0 1 202.37 164.85
  Q 201.94 164.04 201.81 163.01
  Q 201.46 155.57 201.14 148.06
  Q 201.06 146.15 200.72 145.37
  Q 200.03 143.76 198.55 145.02
  Q 199.37 143.45 200.53 143.38
  Z"
/>
<path fill="#000407" d="
  M 320.75 172.95
  Q 316.60 175.91 311.99 177.98
  Q 302.56 182.21 292.80 184.28
  A 1.78 1.66 20.4 0 0 292.13 184.56
  Q 291.35 185.07 290.88 185.86
  A 0.49 0.49 0.0 0 0 291.20 186.59
  L 300.48 188.57
  Q 291.61 192.61 288.94 192.95
  Q 284.42 193.53 280.77 193.87
  C 274.74 194.44 268.05 196.41 262.84 196.63
  C 247.37 197.28 227.95 198.05 214.63 188.51
  L 221.40 186.63
  A 1.26 1.26 0.0 0 0 221.28 184.17
  Q 206.05 181.56 192.54 172.75
  L 196.33 171.85
  A 0.07 0.07 0.0 0 0 196.31 171.71
  L 192.23 171.73
  A 0.19 0.18 -5.8 0 1 192.05 171.59
  L 192.05 171.58
  A 0.21 0.20 -7.2 0 1 192.21 171.38
  L 197.74 169.99
  A 0.71 0.71 0.0 0 0 198.27 169.30
  L 198.55 145.02
  Q 200.03 143.76 200.72 145.37
  Q 201.06 146.15 201.14 148.06
  Q 201.46 155.57 201.81 163.01
  Q 201.44 170.27 205.41 174.70
  Q 209.00 178.72 216.49 180.02
  Q 222.05 180.99 228.06 180.55
  C 234.36 180.09 238.72 180.30 243.73 181.18
  Q 247.25 181.80 252.15 181.60
  Q 273.73 180.73 276.88 180.80
  Q 284.54 180.99 292.18 181.34
  C 299.57 181.68 307.77 179.38 311.32 172.44
  A 1.22 1.20 56.5 0 0 311.45 171.78
  L 310.62 162.63
  Q 310.65 156.67 310.59 150.50
  Q 310.56 147.42 311.35 144.49
  Q 311.42 144.24 311.28 144.25
  Q 311.11 144.06 311.73 144.04
  L 312.36 143.94
  A 0.65 0.65 0.0 0 1 313.10 144.46
  L 313.54 146.85
  A 0.54 0.47 40.9 0 1 313.56 146.99
  L 313.65 160.93
  A 3.96 3.75 39.1 0 0 313.78 161.92
  Q 314.59 165.11 314.42 169.29
  A 2.54 2.53 -81.8 0 0 316.34 171.86
  L 320.75 172.95
  Z
  M 231.1660 185.3831
  A 2.01 0.82 -158.8 0 0 232.7435 186.8745
  A 2.01 0.82 -158.8 0 0 234.9140 186.8369
  A 2.01 0.82 -158.8 0 0 233.3365 185.3455
  A 2.01 0.82 -158.8 0 0 231.1660 185.3831
  Z
  M 279.82 185.37
  Q 279.73 185.16 279.61 185.15
  A 0.27 0.25 -31.9 0 0 279.47 185.65
  C 279.66 185.69 279.94 185.63 279.82 185.37
  Z"
/>
<path fill="#000407" d="
  M 183.53 166.39
  Q 181.01 164.91 179.17 162.69
  Q 182.30 163.43 183.53 166.39
  Z"
/>
<path fill="#46423e" d="
  M 201.81 163.01
  Q 201.94 164.04 202.37 164.85
  A 1.29 1.27 86.0 0 0 203.06 165.46
  Q 239.38 178.98 279.17 172.60
  Q 296.75 169.79 310.62 162.63
  L 311.45 171.78
  A 1.22 1.20 56.5 0 1 311.32 172.44
  C 307.77 179.38 299.57 181.68 292.18 181.34
  Q 284.54 180.99 276.88 180.80
  Q 273.73 180.73 252.15 181.60
  Q 247.25 181.80 243.73 181.18
  C 238.72 180.30 234.36 180.09 228.06 180.55
  Q 222.05 180.99 216.49 180.02
  Q 209.00 178.72 205.41 174.70
  Q 201.44 170.27 201.81 163.01
  Z"
/>
<path fill="#000407" d="
  M 503.49 198.01
  L 502.24 200.18
  A 1.08 1.07 21.1 0 0 502.95 201.77
  Q 507.74 202.78 512.00 199.93
  L 512.00 211.69
  L 500.42 211.98
  A 2.34 2.13 -47.7 0 0 500.00 212.02
  Q 493.80 213.09 487.52 215.01
  Q 485.46 215.64 483.06 217.55
  A 1.47 1.42 -13.7 0 0 482.55 218.36
  Q 480.86 226.05 484.23 232.44
  A 1.42 1.42 0.0 0 0 486.64 232.59
  L 490.69 226.86
  A 0.46 0.46 0.0 0 1 491.52 227.18
  Q 490.94 232.42 487.49 237.12
  A 1.09 1.09 0.0 0 0 487.92 238.75
  C 495.27 242.10 504.65 242.12 512.00 239.96
  L 512.00 241.98
  C 509.90 246.72 505.58 246.50 501.25 245.72
  Q 486.20 243.00 480.92 242.38
  C 478.09 242.04 474.25 240.83 473.43 237.75
  Q 471.86 231.81 472.02 225.99
  A 0.88 0.87 -77.0 0 0 471.51 225.16
  Q 470.72 224.80 469.42 224.93
  L 470.09 223.20
  Q 470.29 222.70 470.74 222.62
  Q 471.09 222.55 471.60 222.84
  Q 472.90 223.57 474.19 223.63
  A 1.83 1.82 -88.0 0 0 476.11 221.83
  Q 476.18 216.91 476.88 210.17
  C 476.99 209.05 476.54 206.68 474.91 206.83
  A 1.12 1.11 -77.5 0 0 474.04 207.39
  Q 472.16 210.65 472.15 214.22
  Q 472.14 215.74 469.87 219.70
  Q 465.15 223.18 458.82 224.80
  C 456.02 225.51 455.07 226.19 454.49 228.85
  Q 453.80 232.01 451.73 234.89
  A 0.60 0.60 0.0 0 0 451.61 235.25
  Q 451.60 236.13 452.89 236.83
  Q 451.17 237.21 449.75 236.97
  Q 449.20 236.88 447.93 237.52
  Q 448.08 236.53 448.69 235.40
  Q 450.88 229.92 450.69 223.60
  Q 450.59 221.43 450.85 219.18
  Q 451.11 216.93 450.90 214.81
  Q 450.69 212.69 450.55 209.44
  Q 450.26 203.12 448.46 197.70
  Q 454.51 197.19 460.72 193.63
  Q 463.53 192.02 465.22 190.24
  C 468.30 187.00 472.37 183.48 476.44 183.10
  Q 478.38 182.92 480.28 185.01
  C 484.29 189.41 480.37 194.10 476.67 196.91
  Q 475.38 197.90 474.74 199.54
  A 2.17 2.14 -9.8 0 1 474.11 200.42
  Q 472.48 201.78 472.00 203.01
  A 0.67 0.67 0.0 0 0 472.62 203.92
  L 473.03 203.92
  A 0.74 0.73 -75.4 0 0 473.67 203.54
  L 475.44 200.30
  A 1.78 1.65 -4.7 0 1 475.96 199.73
  Q 480.17 196.83 484.32 197.39
  C 490.58 198.23 497.16 198.09 503.49 198.01
  Z"
/>
<path fill="#000407" d="
  M 65.19 197.32
  Q 62.30 211.18 63.88 225.54
  L 65.24 232.89
  Q 65.44 234.27 66.18 235.50
  Q 66.42 236.65 67.04 237.53
  Q 67.13 238.02 66.99 238.55
  Q 65.39 237.45 63.58 238.34
  Q 59.95 240.12 56.31 240.45
  L 61.85 238.24
  A 1.28 1.27 60.3 0 0 62.38 236.28
  Q 61.10 234.61 61.07 232.94
  A 1.85 1.80 33.9 0 0 60.94 232.32
  L 59.65 229.10
  A 4.30 4.30 0.0 0 0 56.33 226.46
  C 51.48 225.71 46.96 225.08 42.91 222.25
  C 41.12 217.31 41.14 212.40 40.85 206.46
  A 0.64 0.64 0.0 0 0 40.21 205.85
  L 37.37 205.85
  A 1.86 1.86 0.0 0 1 36.02 205.27
  C 34.08 203.25 30.49 199.68 27.49 199.88
  A 1.82 1.82 0.0 0 0 25.84 202.11
  L 27.92 211.02
  Q 29.60 216.09 29.37 221.25
  Q 29.33 222.31 30.42 230.57
  A 2.55 2.53 28.9 0 0 30.66 231.39
  L 33.73 237.63
  A 1.24 1.23 -6.6 0 0 34.57 238.29
  L 37.16 238.87
  A 0.92 0.84 -21.2 0 1 37.42 238.97
  Q 38.33 239.54 38.20 240.55
  Q 35.35 240.71 32.37 242.18
  A 6.26 6.06 -60.4 0 1 30.36 242.77
  Q 26.80 243.16 22.54 243.79
  C 18.40 244.40 13.47 245.83 8.81 246.07
  Q 5.29 246.25 3.79 244.50
  Q -1.40 238.43 4.43 233.03
  A 0.92 0.92 0.0 0 0 4.08 231.48
  Q 2.55 231.00 1.26 231.04
  A 1.09 1.09 0.0 0 1 0.14 229.98
  L 0.00 225.36
  L 0.00 199.48
  Q 3.01 198.07 5.75 198.04
  Q 23.01 197.85 26.25 197.78
  Q 31.35 197.67 35.37 201.10
  Q 38.15 203.48 39.34 204.64
  A 1.05 1.05 0.0 0 0 41.12 204.00
  L 41.13 203.91
  A 4.22 4.21 27.1 0 0 40.06 200.61
  C 38.55 198.95 31.32 192.98 32.06 188.46
  C 32.57 185.33 34.01 183.66 37.48 183.84
  Q 41.57 184.04 43.66 186.18
  Q 48.66 191.31 51.81 193.20
  Q 55.77 195.58 61.84 198.43
  C 63.39 199.16 64.32 198.58 65.19 197.32
  Z"
/>
<path fill="#46423e" d="
  M 339.11 185.29
  C 332.91 187.66 328.05 189.66 327.73 195.96
  Q 327.49 200.70 327.50 205.60
  Q 325.91 201.33 325.16 194.12
  Q 324.75 190.16 322.14 186.81
  Q 327.36 184.37 333.94 184.10
  Q 335.48 184.03 339.11 185.29
  Z"
/>
<path fill="#46423e" d="
  M 194.39 189.69
  C 187.39 190.99 188.81 198.35 187.18 204.02
  Q 184.58 213.09 180.90 221.50
  A 2.49 2.39 82.1 0 1 180.27 222.37
  Q 179.00 223.50 177.64 226.24
  A 0.78 0.77 18.4 0 1 176.81 226.65
  Q 172.20 225.80 170.48 224.77
  Q 168.51 223.58 166.82 223.95
  A 1.65 1.65 0.0 0 0 165.74 226.39
  L 169.93 233.64
  A 0.99 0.99 0.0 0 1 169.95 234.59
  Q 168.34 237.66 166.11 239.78
  Q 151.48 240.66 138.30 239.21
  Q 136.91 235.65 136.66 233.82
  Q 135.40 224.78 135.80 215.69
  L 136.36 225.73
  A 0.50 0.50 0.0 0 0 136.87 226.20
  C 146.31 226.00 152.73 224.67 160.59 218.87
  A 0.80 0.79 -28.5 0 0 160.87 217.94
  Q 159.14 213.31 157.24 208.27
  Q 156.32 205.79 156.37 202.25
  A 0.35 0.35 0.0 0 1 156.90 201.95
  Q 157.96 202.56 158.10 203.46
  Q 159.00 209.17 161.60 212.80
  A 3.94 3.88 -68.4 0 1 162.26 214.35
  Q 162.56 216.00 164.62 217.37
  A 1.04 1.01 -41.0 0 0 165.65 217.43
  Q 171.78 214.35 173.88 212.03
  C 180.77 204.42 180.05 194.37 176.07 185.26
  Q 186.45 183.65 194.39 189.69
  Z"
/>
<ellipse fill="#65605b" cx="0.00" cy="0.00" transform="translate(233.04,186.11) rotate(-158.8)" rx="2.01" ry="0.82"/>
<path fill="#534f48" d="
  M 176.07 185.26
  C 180.05 194.37 180.77 204.42 173.88 212.03
  Q 171.78 214.35 165.65 217.43
  A 1.04 1.01 -41.0 0 1 164.62 217.37
  Q 162.56 216.00 162.26 214.35
  A 3.94 3.88 -68.4 0 0 161.60 212.80
  Q 159.00 209.17 158.10 203.46
  Q 157.96 202.56 156.90 201.95
  A 0.35 0.35 0.0 0 0 156.37 202.25
  Q 156.32 205.79 157.24 208.27
  Q 159.14 213.31 160.87 217.94
  A 0.80 0.79 -28.5 0 1 160.59 218.87
  C 152.73 224.67 146.31 226.00 136.87 226.20
  A 0.50 0.50 0.0 0 1 136.36 225.73
  L 135.80 215.69
  L 137.62 198.68
  Q 145.81 197.78 154.45 197.95
  C 157.08 198.00 161.01 193.45 163.10 191.61
  Q 168.78 186.62 176.07 185.26
  Z
  M 143.3500 213.7164
  A 2.06 1.35 -179.9 0 0 145.4076 215.0700
  A 2.06 1.35 -179.9 0 0 147.4700 213.7236
  A 2.06 1.35 -179.9 0 0 145.4124 212.3700
  A 2.06 1.35 -179.9 0 0 143.3500 213.7164
  Z"
/>
<path fill="#65605b" d="
  M 375.22 198.53
  Q 377.61 202.50 377.62 208.50
  Q 377.65 220.39 377.24 227.46
  L 376.62 209.21
  A 1.02 1.01 17.4 0 0 376.21 208.44
  Q 367.59 202.13 356.80 206.54
  L 358.25 200.33
  A 0.68 0.67 -62.1 0 0 358.06 199.70
  L 357.74 199.37
  A 0.58 0.58 0.0 0 0 356.78 199.63
  Q 355.44 204.54 354.23 209.71
  Q 353.34 213.55 351.23 216.79
  A 3.74 3.49 88.0 0 1 350.57 217.55
  L 345.48 222.04
  A 1.23 1.19 -64.5 0 1 344.65 222.35
  L 334.61 222.09
  A 1.04 0.98 58.7 0 1 334.10 221.95
  Q 332.73 221.11 331.86 218.69
  Q 328.91 210.46 327.50 205.60
  Q 327.49 200.70 327.73 195.96
  C 328.05 189.66 332.91 187.66 339.11 185.29
  Q 347.85 187.88 354.97 195.55
  Q 356.13 196.80 358.04 197.49
  Q 359.37 197.98 361.64 197.93
  Q 368.31 197.81 375.22 198.53
  Z"
/>
<path fill="#000407" d="
  M 322.14 186.81
  Q 324.75 190.16 325.16 194.12
  Q 325.91 201.33 327.50 205.60
  Q 328.91 210.46 331.86 218.69
  Q 332.73 221.11 334.10 221.95
  A 1.04 0.98 58.7 0 0 334.61 222.09
  L 344.65 222.35
  A 1.23 1.19 -64.5 0 0 345.48 222.04
  L 350.57 217.55
  A 3.74 3.49 88.0 0 0 351.23 216.79
  Q 353.34 213.55 354.23 209.71
  Q 355.44 204.54 356.78 199.63
  A 0.58 0.58 0.0 0 1 357.74 199.37
  L 358.06 199.70
  A 0.68 0.67 -62.1 0 1 358.25 200.33
  L 356.80 206.54
  Q 355.81 209.66 354.82 213.12
  Q 353.92 216.29 351.03 220.25
  Q 348.84 220.67 347.38 221.92
  A 1.51 1.47 75.0 0 0 346.88 222.81
  Q 346.49 225.34 345.11 227.52
  C 342.70 231.33 342.52 235.08 343.08 239.48
  Q 340.58 238.05 338.25 238.24
  Q 331.40 238.82 323.82 240.61
  L 322.95 230.66
  A 4.80 4.52 -57.3 0 0 322.79 229.80
  L 321.67 225.89
  A 0.35 0.34 58.5 0 0 321.09 225.75
  Q 320.82 226.03 320.66 225.96
  Q 319.36 225.38 319.10 224.01
  Q 317.21 213.88 314.60 205.24
  L 313.98 200.94
  A 0.49 0.49 0.0 0 1 314.58 200.39
  Q 315.46 200.58 316.04 201.03
  A 0.29 0.29 0.0 0 0 316.47 200.65
  L 315.65 199.22
  A 0.83 0.83 0.0 0 0 314.84 198.81
  Q 313.19 198.99 313.38 200.61
  C 313.35 199.44 313.68 198.14 314.13 197.02
  Q 314.22 197.32 314.36 197.51
  A 0.32 0.31 31.5 0 0 314.92 197.38
  Q 316.10 190.69 322.14 186.81
  Z"
/>
<path fill="#74706a" d="
  M 111.56 188.21
  Q 118.66 197.68 118.87 209.49
  C 119.13 223.83 112.56 229.31 98.98 230.55
  Q 80.48 232.25 63.88 225.54
  Q 62.30 211.18 65.19 197.32
  Q 67.77 191.94 73.52 190.79
  Q 92.56 186.98 111.56 188.21
  Z"
/>
<path fill="#74706a" d="
  M 448.46 197.70
  Q 450.26 203.12 450.55 209.44
  Q 450.69 212.69 450.90 214.81
  Q 451.11 216.93 450.85 219.18
  Q 450.59 221.43 450.69 223.60
  C 432.46 233.91 413.04 232.68 395.09 222.82
  A 1.15 1.14 -80.8 0 1 394.53 222.04
  C 393.12 214.63 393.02 206.89 392.17 199.77
  Q 391.70 195.84 393.32 189.45
  Q 396.30 188.60 399.51 188.33
  C 409.73 187.48 419.33 187.99 429.37 188.57
  Q 432.84 188.77 439.04 189.96
  Q 445.73 191.24 448.46 197.70
  Z
  M 438.87 215.84
  C 442.73 211.72 440.98 206.84 436.13 204.64
  Q 423.94 199.12 409.95 203.60
  C 402.34 206.03 400.65 213.82 407.88 218.18
  C 416.27 223.23 431.71 223.46 438.87 215.84
  Z"
/>
<path fill="#65605b" d="
  M 121.98 189.89
  Q 121.80 201.30 120.96 212.55
  C 120.20 222.61 119.86 229.17 110.55 232.81
  Q 106.53 234.38 103.12 234.71
  Q 84.06 236.56 65.24 232.89
  L 63.88 225.54
  Q 80.48 232.25 98.98 230.55
  C 112.56 229.31 119.13 223.83 118.87 209.49
  Q 118.66 197.68 111.56 188.21
  L 121.98 189.89
  Z"
/>
<path fill="#46423e" d="
  M 214.63 188.51
  C 227.95 198.05 247.37 197.28 262.84 196.63
  C 268.05 196.41 274.74 194.44 280.77 193.87
  Q 284.42 193.53 288.94 192.95
  Q 291.61 192.61 300.48 188.57
  C 304.34 189.93 312.10 193.41 314.13 197.02
  C 313.68 198.14 313.35 199.44 313.38 200.61
  Q 313.19 198.99 314.84 198.81
  A 0.83 0.83 0.0 0 1 315.65 199.22
  L 316.47 200.65
  A 0.29 0.29 0.0 0 1 316.04 201.03
  Q 315.46 200.58 314.58 200.39
  A 0.49 0.49 0.0 0 0 313.98 200.94
  L 314.60 205.24
  C 311.30 198.62 308.29 197.29 301.47 197.87
  A 3.67 3.62 -56.7 0 0 300.63 198.05
  Q 295.60 199.79 289.03 201.10
  Q 266.01 205.70 242.44 203.98
  Q 233.61 203.48 224.89 201.79
  Q 216.41 200.16 214.18 198.87
  Q 208.11 195.34 201.44 195.74
  L 202.40 194.32
  A 1.98 1.98 0.0 0 1 202.95 193.77
  Q 208.42 190.21 214.63 188.51
  Z"
/>
<path fill="#000407" d="
  M 194.39 189.69
  Q 197.49 192.85 199.56 198.09
  L 199.63 203.23
  L 197.89 209.01
  L 194.58 222.69
  Q 191.62 225.33 191.44 228.87
  Q 191.10 235.49 190.12 239.69
  Q 189.99 240.40 189.87 240.45
  Q 187.61 239.56 186.00 239.45
  Q 179.07 238.97 175.63 238.33
  A 4.00 3.94 -47.9 0 0 173.73 238.44
  C 171.02 239.28 169.50 240.17 166.11 239.78
  Q 168.34 237.66 169.95 234.59
  A 0.99 0.99 0.0 0 0 169.93 233.64
  L 165.74 226.39
  A 1.65 1.65 0.0 0 1 166.82 223.95
  Q 168.51 223.58 170.48 224.77
  Q 172.20 225.80 176.81 226.65
  A 0.78 0.77 18.4 0 0 177.64 226.24
  Q 179.00 223.50 180.27 222.37
  A 2.49 2.39 82.1 0 0 180.90 221.50
  Q 184.58 213.09 187.18 204.02
  C 188.81 198.35 187.39 190.99 194.39 189.69
  Z"
/>
<path fill="#534f48" d="
  M 393.32 189.45
  Q 391.70 195.84 392.17 199.77
  C 393.02 206.89 393.12 214.63 394.53 222.04
  A 1.15 1.14 -80.8 0 0 395.09 222.82
  C 413.04 232.68 432.46 233.91 450.69 223.60
  Q 450.88 229.92 448.69 235.40
  Q 442.46 236.36 428.47 237.41
  Q 408.74 238.90 393.54 229.74
  A 0.96 0.95 -75.2 0 1 393.08 228.94
  C 392.96 220.32 393.24 212.22 391.62 204.39
  C 390.83 200.55 389.93 195.60 389.79 190.80
  Q 391.38 189.69 393.32 189.45
  Z"
/>
<path fill="#46423e" d="
  M 124.86 191.45
  Q 123.05 199.80 123.81 204.20
  Q 125.74 215.43 124.83 226.89
  C 124.54 230.54 124.61 234.51 124.74 237.25
  Q 124.98 242.17 120.94 245.00
  Q 116.65 245.92 109.75 246.00
  C 95.54 246.16 87.33 246.21 75.24 244.01
  Q 69.36 242.94 66.99 238.55
  Q 67.13 238.02 67.04 237.53
  Q 89.28 239.64 111.53 237.30
  A 2.40 2.35 -63.9 0 0 112.55 236.94
  L 119.22 232.75
  A 1.88 1.84 -8.1 0 0 120.00 231.73
  L 121.41 227.26
  A 3.15 3.08 54.7 0 0 121.54 226.44
  L 121.94 200.92
  A 0.07 0.06 5.7 0 0 121.88 200.86
  A 0.14 0.14 0.0 0 0 121.74 200.99
  Q 121.09 212.20 120.91 217.27
  C 120.44 230.63 115.74 234.75 102.72 235.88
  C 91.33 236.87 78.18 237.53 66.18 235.50
  Q 65.44 234.27 65.24 232.89
  Q 84.06 236.56 103.12 234.71
  Q 106.53 234.38 110.55 232.81
  C 119.86 229.17 120.20 222.61 120.96 212.55
  Q 121.80 201.30 121.98 189.89
  L 124.86 191.45
  Z"
/>
<path fill="#46423e" d="
  M 389.79 190.80
  C 389.93 195.60 390.83 200.55 391.62 204.39
  C 393.24 212.22 392.96 220.32 393.08 228.94
  A 0.96 0.95 -75.2 0 0 393.54 229.74
  Q 408.74 238.90 428.47 237.41
  Q 442.46 236.36 448.69 235.40
  Q 448.08 236.53 447.93 237.52
  Q 445.37 242.99 438.69 244.15
  Q 429.10 245.82 423.00 246.05
  Q 406.63 246.65 391.51 245.03
  Q 388.80 241.03 389.24 237.38
  Q 389.50 235.33 390.01 232.83
  A 8.42 8.20 49.4 0 0 390.16 230.50
  L 388.50 208.33
  A 4.50 4.33 -40.0 0 1 388.67 206.75
  Q 389.55 203.77 389.36 203.04
  Q 387.86 197.40 388.67 191.72
  Q 389.18 191.07 389.79 190.80
  Z"
/>
<path fill="#000407" d="
  M 137.62 198.68
  L 135.80 215.69
  Q 135.40 224.78 136.66 233.82
  Q 136.91 235.65 138.30 239.21
  Q 135.09 236.68 129.77 238.22
  A 2.51 2.51 0.0 0 0 128.19 239.58
  Q 126.11 244.12 120.94 245.00
  Q 124.98 242.17 124.74 237.25
  C 124.61 234.51 124.54 230.54 124.83 226.89
  Q 125.74 215.43 123.81 204.20
  Q 123.05 199.80 124.86 191.45
  Q 127.37 193.53 128.31 197.11
  A 1.22 1.20 9.0 0 0 128.86 197.85
  Q 132.91 200.21 137.62 198.68
  Z"
/>
<path fill="#000407" d="
  M 388.67 191.72
  Q 387.86 197.40 389.36 203.04
  Q 389.55 203.77 388.67 206.75
  A 4.50 4.33 -40.0 0 0 388.50 208.33
  L 390.16 230.50
  A 8.42 8.20 49.4 0 1 390.01 232.83
  Q 389.50 235.33 389.24 237.38
  Q 388.80 241.03 391.51 245.03
  Q 388.18 243.28 387.10 241.63
  Q 386.24 240.30 385.27 238.91
  A 1.55 1.53 -8.1 0 0 384.50 238.34
  Q 380.13 236.88 375.66 239.20
  Q 377.31 234.80 377.17 232.68
  L 377.24 227.46
  Q 377.65 220.39 377.62 208.50
  Q 377.61 202.50 375.22 198.53
  Q 379.12 199.91 383.67 198.28
  Q 385.51 197.62 385.91 195.71
  Q 386.39 193.45 388.67 191.72
  Z"
/>
<path fill="#534f48" d="
  M 242.44 203.98
  C 230.87 204.13 218.22 202.03 209.34 201.53
  Q 204.51 201.25 199.63 203.23
  L 199.56 198.09
  L 201.44 195.74
  Q 208.11 195.34 214.18 198.87
  Q 216.41 200.16 224.89 201.79
  Q 233.61 203.48 242.44 203.98
  Z
  M 212.07 198.00
  Q 207.19 195.86 202.02 196.69
  A 0.37 0.36 -8.4 0 0 201.72 197.09
  L 201.72 197.11
  A 0.43 0.43 0.0 0 0 202.18 197.50
  Q 207.18 197.05 212.02 198.49
  A 0.04 0.03 15.7 0 0 212.07 198.47
  L 212.16 198.23
  A 0.18 0.18 0.0 0 0 212.07 198.00
  Z"
/>
<path fill="#46423e" d="
  M 212.07 198.00
  A 0.18 0.18 0.0 0 1 212.16 198.23
  L 212.07 198.47
  A 0.04 0.03 15.7 0 1 212.02 198.49
  Q 207.18 197.05 202.18 197.50
  A 0.43 0.43 0.0 0 1 201.72 197.11
  L 201.72 197.09
  A 0.37 0.36 -8.4 0 1 202.02 196.69
  Q 207.19 195.86 212.07 198.00
  Z"
/>
<path fill="#65605b" d="
  M 314.60 205.24
  Q 317.21 213.88 319.10 224.01
  Q 319.36 225.38 320.66 225.96
  Q 320.82 226.03 321.09 225.75
  A 0.35 0.34 58.5 0 1 321.67 225.89
  L 322.79 229.80
  A 4.80 4.52 -57.3 0 1 322.95 230.66
  L 323.82 240.61
  Q 324.34 249.49 323.93 254.03
  Q 323.29 260.99 320.96 272.75
  Q 319.94 277.86 318.04 280.02
  C 316.57 279.21 315.07 279.57 313.99 279.15
  Q 311.02 277.98 308.12 275.42
  Q 305.37 272.99 298.73 267.55
  Q 298.26 267.17 296.55 264.27
  A 1.15 1.12 -12.8 0 0 295.64 263.71
  Q 294.98 263.65 293.99 264.19
  A 1.03 1.03 0.0 0 1 292.52 263.60
  L 291.68 261.03
  C 302.07 253.98 309.91 244.78 308.85 231.37
  C 306.96 207.66 278.92 205.58 260.71 205.40
  Q 229.30 205.09 197.89 209.01
  L 199.63 203.23
  Q 204.51 201.25 209.34 201.53
  C 218.22 202.03 230.87 204.13 242.44 203.98
  Q 266.01 205.70 289.03 201.10
  Q 295.60 199.79 300.63 198.05
  A 3.67 3.62 -56.7 0 1 301.47 197.87
  C 308.29 197.29 311.30 198.62 314.60 205.24
  Z"
/>
<path fill="#65605b" d="
  M 512.00 197.98
  L 512.00 199.93
  Q 507.74 202.78 502.95 201.77
  A 1.08 1.07 21.1 0 1 502.24 200.18
  L 503.49 198.01
  L 512.00 197.98
  Z"
/>
<path fill="#959493" d="
  M 42.91 222.25
  Q 45.96 227.88 47.37 233.74
  A 1.75 1.75 0.0 0 1 45.90 235.88
  Q 40.02 236.65 33.89 233.97
  A 1.99 1.99 0.0 0 1 33.05 233.27
  C 28.71 226.85 32.46 217.82 27.92 211.02
  L 25.84 202.11
  A 1.82 1.82 0.0 0 1 27.49 199.88
  C 30.49 199.68 34.08 203.25 36.02 205.27
  A 1.86 1.86 0.0 0 0 37.37 205.85
  L 40.21 205.85
  A 0.64 0.64 0.0 0 1 40.85 206.46
  C 41.14 212.40 41.12 217.31 42.91 222.25
  Z"
/>
<path fill="#7c7972" d="
  M 436.13 204.64
  C 440.98 206.84 442.73 211.72 438.87 215.84
  C 431.71 223.46 416.27 223.23 407.88 218.18
  C 400.65 213.82 402.34 206.03 409.95 203.60
  Q 423.94 199.12 436.13 204.64
  Z"
/>
<path fill="#534f48" d="
  M 67.04 237.53
  Q 66.42 236.65 66.18 235.50
  C 78.18 237.53 91.33 236.87 102.72 235.88
  C 115.74 234.75 120.44 230.63 120.91 217.27
  Q 121.09 212.20 121.74 200.99
  A 0.14 0.14 0.0 0 1 121.88 200.86
  A 0.07 0.06 5.7 0 1 121.94 200.92
  L 121.54 226.44
  A 3.15 3.08 54.7 0 1 121.41 227.26
  L 120.00 231.73
  A 1.88 1.84 -8.1 0 1 119.22 232.75
  L 112.55 236.94
  A 2.40 2.35 -63.9 0 1 111.53 237.30
  Q 89.28 239.64 67.04 237.53
  Z"
/>
<path fill="#74706a" d="
  M 377.24 227.46
  L 377.17 232.68
  C 373.70 237.45 368.98 236.94 363.64 237.10
  Q 354.69 237.38 346.62 235.94
  A 0.93 0.93 0.0 0 1 345.85 234.90
  Q 346.91 227.05 351.03 220.25
  Q 353.92 216.29 354.82 213.12
  Q 355.81 209.66 356.80 206.54
  Q 367.59 202.13 376.21 208.44
  A 1.02 1.01 17.4 0 1 376.62 209.21
  L 377.24 227.46
  Z"
/>
<path fill="#74706a" d="
  M 291.68 261.03
  Q 290.19 258.33 288.62 255.62
  Q 281.60 243.50 267.24 242.80
  Q 258.82 242.40 246.97 242.69
  C 238.86 242.89 233.34 242.98 229.41 249.39
  Q 223.06 259.73 220.92 262.84
  C 211.14 257.76 203.09 251.55 197.73 241.80
  Q 194.65 236.20 192.26 230.49
  A 2.08 2.07 43.9 0 1 192.23 228.98
  L 194.58 222.69
  L 197.89 209.01
  Q 229.30 205.09 260.71 205.40
  C 278.92 205.58 306.96 207.66 308.85 231.37
  C 309.91 244.78 302.07 253.98 291.68 261.03
  Z"
/>
<path fill="#65605b" d="
  M 470.09 223.20
  Q 470.05 222.88 470.14 222.60
  A 0.64 0.63 28.7 0 0 469.93 221.90
  Q 468.81 221.03 469.87 219.70
  Q 472.14 215.74 472.15 214.22
  Q 472.16 210.65 474.04 207.39
  A 1.12 1.11 -77.5 0 1 474.91 206.83
  C 476.54 206.68 476.99 209.05 476.88 210.17
  Q 476.18 216.91 476.11 221.83
  A 1.83 1.82 -88.0 0 1 474.19 223.63
  Q 472.90 223.57 471.60 222.84
  Q 471.09 222.55 470.74 222.62
  Q 470.29 222.70 470.09 223.20
  Z"
/>
<ellipse fill="#74706a" cx="0.00" cy="0.00" transform="translate(145.41,213.72) rotate(-179.9)" rx="2.06" ry="1.35"/>
<path fill="#65605b" d="
  M 42.91 222.25
  C 46.96 225.08 51.48 225.71 56.33 226.46
  A 4.30 4.30 0.0 0 1 59.65 229.10
  L 60.94 232.32
  A 1.85 1.80 33.9 0 1 61.07 232.94
  Q 61.10 234.61 62.38 236.28
  A 1.28 1.27 60.3 0 1 61.85 238.24
  L 56.31 240.45
  Q 48.40 241.59 43.89 241.62
  Q 42.03 241.63 38.20 240.55
  Q 38.33 239.54 37.42 238.97
  A 0.92 0.84 -21.2 0 0 37.16 238.87
  L 34.57 238.29
  A 1.24 1.23 -6.6 0 1 33.73 237.63
  L 30.66 231.39
  A 2.55 2.53 28.9 0 1 30.42 230.57
  Q 29.33 222.31 29.37 221.25
  Q 29.60 216.09 27.92 211.02
  C 32.46 217.82 28.71 226.85 33.05 233.27
  A 1.99 1.99 0.0 0 0 33.89 233.97
  Q 40.02 236.65 45.90 235.88
  A 1.75 1.75 0.0 0 0 47.37 233.74
  Q 45.96 227.88 42.91 222.25
  Z"
/>
<path fill="#46423e" d="
  M 512.00 211.69
  L 512.00 213.00
  L 507.40 215.95
  A 1.04 1.01 75.7 0 0 506.93 216.76
  Q 506.84 218.41 507.32 219.59
  A 1.35 1.34 89.4 0 0 508.09 220.35
  L 512.00 221.89
  L 512.00 222.86
  L 497.08 229.15
  A 0.35 0.35 0.0 0 0 497.15 229.81
  Q 501.48 230.62 504.79 228.50
  A 1.48 1.48 0.0 0 1 506.65 228.72
  L 509.50 231.68
  L 509.40 232.55
  L 506.82 229.81
  A 0.82 0.81 33.6 0 0 505.47 230.08
  L 502.40 238.10
  A 0.79 0.79 0.0 0 0 503.20 239.17
  L 509.77 238.68
  A 1.06 1.06 0.0 0 0 510.74 237.80
  L 511.24 234.90
  L 512.00 235.97
  L 512.00 239.96
  C 504.65 242.12 495.27 242.10 487.92 238.75
  A 1.09 1.09 0.0 0 1 487.49 237.12
  Q 490.94 232.42 491.52 227.18
  A 0.46 0.46 0.0 0 0 490.69 226.86
  L 486.64 232.59
  A 1.42 1.42 0.0 0 1 484.23 232.44
  Q 480.86 226.05 482.55 218.36
  A 1.47 1.42 -13.7 0 1 483.06 217.55
  Q 485.46 215.64 487.52 215.01
  Q 493.80 213.09 500.00 212.02
  A 2.34 2.13 -47.7 0 1 500.42 211.98
  L 512.00 211.69
  Z"
/>
<path fill="#74706a" d="
  M 512.00 213.00
  L 512.00 221.89
  L 508.09 220.35
  A 1.35 1.34 89.4 0 1 507.32 219.59
  Q 506.84 218.41 506.93 216.76
  A 1.04 1.01 75.7 0 1 507.40 215.95
  L 512.00 213.00
  Z"
/>
<path fill="#534f48" d="
  M 469.87 219.70
  Q 468.81 221.03 469.93 221.90
  A 0.64 0.63 28.7 0 1 470.14 222.60
  Q 470.05 222.88 470.09 223.20
  L 469.42 224.93
  Q 462.63 233.27 452.89 236.83
  Q 451.60 236.13 451.61 235.25
  A 0.60 0.60 0.0 0 1 451.73 234.89
  Q 453.80 232.01 454.49 228.85
  C 455.07 226.19 456.02 225.51 458.82 224.80
  Q 465.15 223.18 469.87 219.70
  Z"
/>
<path fill="#46423e" d="
  M 351.03 220.25
  Q 346.91 227.05 345.85 234.90
  A 0.93 0.93 0.0 0 0 346.62 235.94
  Q 354.69 237.38 363.64 237.10
  C 368.98 236.94 373.70 237.45 377.17 232.68
  Q 377.31 234.80 375.66 239.20
  Q 359.78 240.92 343.08 239.48
  C 342.52 235.08 342.70 231.33 345.11 227.52
  Q 346.49 225.34 346.88 222.81
  A 1.51 1.47 75.0 0 1 347.38 221.92
  Q 348.84 220.67 351.03 220.25
  Z"
/>
<path fill="#65605b" d="
  M 194.58 222.69
  L 192.23 228.98
  A 2.08 2.07 43.9 0 0 192.26 230.49
  Q 194.65 236.20 197.73 241.80
  C 203.09 251.55 211.14 257.76 220.92 262.84
  Q 216.76 265.98 212.89 269.14
  C 207.91 273.19 203.45 275.32 198.67 278.58
  A 1.30 1.23 26.5 0 1 197.95 278.80
  L 194.35 278.81
  L 193.78 277.61
  A 6.86 6.80 -62.4 0 1 193.26 275.92
  L 189.50 252.75
  Q 189.70 251.96 189.42 251.20
  L 190.07 243.32
  Q 190.64 241.71 190.12 239.69
  Q 191.10 235.49 191.44 228.87
  Q 191.62 225.33 194.58 222.69
  Z"
/>
<path fill="#000407" d="
  M 512.00 222.86
  L 512.00 230.02
  Q 511.67 231.23 509.50 231.68
  L 506.65 228.72
  A 1.48 1.48 0.0 0 0 504.79 228.50
  Q 501.48 230.62 497.15 229.81
  A 0.35 0.35 0.0 0 1 497.08 229.15
  L 512.00 222.86
  Z"
/>
<path fill="#65605b" d="
  M 509.40 232.55
  L 511.24 234.90
  L 510.74 237.80
  A 1.06 1.06 0.0 0 1 509.77 238.68
  L 503.20 239.17
  A 0.79 0.79 0.0 0 1 502.40 238.10
  L 505.47 230.08
  A 0.82 0.81 33.6 0 1 506.82 229.81
  L 509.40 232.55
  Z"
/>
<path fill="#46423e" d="
  M 190.12 239.69
  Q 190.64 241.71 190.07 243.32
  Q 189.70 242.06 189.87 240.45
  Q 189.99 240.40 190.12 239.69
  Z"
/>
<path fill="#000407" d="
  M 291.68 261.03
  L 292.52 263.60
  A 1.03 1.03 0.0 0 0 293.99 264.19
  Q 294.98 263.65 295.64 263.71
  A 1.15 1.12 -12.8 0 1 296.55 264.27
  Q 298.26 267.17 298.73 267.55
  Q 305.37 272.99 308.12 275.42
  Q 311.02 277.98 313.99 279.15
  C 315.07 279.57 316.57 279.21 318.04 280.02
  L 315.91 281.08
  A 1.38 1.31 90.0 0 0 315.29 281.73
  C 313.58 285.63 313.87 288.44 314.15 293.07
  A 1.72 1.72 0.0 0 0 315.56 294.66
  Q 316.78 294.87 318.45 295.92
  L 312.08 301.80
  A 2.21 2.03 -77.1 0 1 311.60 302.13
  Q 309.30 303.33 307.66 304.34
  Q 305.84 305.47 303.33 306.54
  Q 296.71 309.36 289.01 312.25
  A 0.72 0.72 0.0 0 0 288.60 313.20
  C 291.42 319.89 292.34 326.59 296.09 333.81
  A 4.31 3.76 -72.1 0 1 296.36 334.44
  L 297.07 336.65
  A 1.19 1.19 0.0 0 0 298.82 337.29
  Q 301.90 335.43 306.06 331.31
  Q 307.63 329.76 313.13 325.66
  Q 315.34 324.01 317.99 321.37
  Q 320.20 319.16 322.71 316.91
  Q 321.47 321.62 317.52 323.36
  A 0.63 0.62 36.9 0 0 317.69 324.55
  Q 320.85 324.98 323.70 327.73
  Q 321.23 330.67 318.77 333.01
  Q 314.95 336.64 312.32 338.75
  C 305.51 344.23 298.38 351.38 292.62 355.85
  Q 286.59 360.53 281.83 364.37
  A 1.63 1.60 77.8 0 0 281.28 365.24
  C 279.20 374.16 277.64 389.29 284.52 396.52
  L 287.50 397.02
  C 287.80 400.07 288.18 403.49 288.01 406.31
  Q 287.74 410.79 288.69 415.12
  A 1.26 1.24 -32.0 0 1 288.43 416.20
  Q 287.40 417.42 285.46 417.95
  L 280.06 417.98
  A 0.88 0.88 0.0 0 0 279.33 418.37
  Q 274.56 425.31 273.40 433.51
  Q 271.06 450.07 273.86 466.52
  C 274.55 470.63 275.66 476.41 280.61 477.16
  A 0.75 0.74 -70.1 0 0 281.37 476.80
  Q 284.54 471.24 290.91 468.49
  Q 308.10 462.54 326.36 466.17
  C 331.00 467.09 337.10 468.71 339.23 473.07
  Q 340.38 475.42 341.81 477.31
  A 0.39 0.39 0.0 0 0 342.51 477.09
  L 343.44 461.64
  C 344.94 466.40 345.89 473.27 343.76 477.81
  Q 343.00 479.44 343.28 480.50
  Q 343.90 482.83 343.90 486.34
  Q 339.93 482.59 336.41 478.98
  Q 334.53 477.04 333.21 476.54
  Q 331.47 475.89 329.26 475.45
  Q 313.32 472.33 297.94 476.72
  Q 294.89 477.59 291.37 479.98
  A 3.23 3.19 -70.1 0 1 290.51 480.39
  L 288.20 481.09
  A 3.10 3.10 0.0 0 0 286.04 483.70
  C 285.67 486.97 285.25 490.27 283.93 494.09
  Q 282.47 498.28 281.35 502.45
  Q 278.99 499.76 278.51 495.83
  A 1.60 1.55 -71.6 0 0 278.08 494.94
  Q 274.31 490.97 273.43 487.34
  Q 272.10 481.82 270.48 473.92
  Q 269.69 470.11 270.30 464.15
  Q 271.15 455.81 271.05 454.56
  C 270.51 447.35 271.50 440.09 272.22 432.75
  Q 272.76 427.26 276.54 413.54
  A 1.48 1.27 59.1 0 0 276.59 413.25
  L 277.34 398.12
  A 3.37 3.35 56.1 0 1 277.53 397.13
  L 278.62 394.00
  A 2.29 2.22 53.6 0 0 278.74 393.11
  Q 278.33 387.42 276.90 381.62
  Q 274.93 373.63 272.22 366.15
  L 277.79 361.97
  A 1.08 0.96 -4.7 0 0 278.01 361.74
  L 284.55 352.48
  A 1.92 1.39 -57.8 0 1 284.72 352.27
  L 287.75 348.93
  Q 293.04 344.32 294.47 341.73
  C 296.40 338.24 294.37 334.26 292.65 330.89
  Q 291.28 328.21 287.45 314.93
  Q 287.28 314.33 287.35 314.10
  Q 287.53 313.42 287.46 313.28
  A 0.62 0.62 0.0 0 0 286.73 312.96
  C 284.15 313.68 279.49 314.47 275.79 314.77
  Q 262.89 315.79 249.50 315.63
  Q 236.12 315.47 228.07 313.87
  Q 224.07 313.08 212.49 308.78
  C 208.01 307.12 203.77 304.38 199.57 301.92
  Q 197.82 300.90 194.44 296.28
  L 198.40 294.68
  A 1.27 1.27 0.0 0 0 199.02 294.15
  C 200.98 290.75 199.85 287.26 198.95 283.36
  A 3.41 3.39 12.7 0 0 197.74 281.46
  L 194.35 278.81
  L 197.95 278.80
  A 1.30 1.23 26.5 0 0 198.67 278.58
  C 203.45 275.32 207.91 273.19 212.89 269.14
  Q 216.76 265.98 220.92 262.84
  Q 223.06 259.73 229.41 249.39
  C 233.34 242.98 238.86 242.89 246.97 242.69
  Q 258.82 242.40 267.24 242.80
  Q 281.60 243.50 288.62 255.62
  Q 290.19 258.33 291.68 261.03
  Z
  M 228.89 269.49
  Q 233.18 271.78 237.16 271.67
  C 241.23 271.55 243.84 272.03 249.75 272.41
  Q 254.00 272.68 258.25 272.59
  Q 271.20 272.31 272.03 272.27
  C 277.28 271.99 283.75 271.00 286.11 265.94
  C 288.69 260.42 287.33 255.77 283.42 251.22
  C 278.69 245.71 270.93 244.12 264.00 243.92
  Q 253.10 243.60 240.09 244.35
  C 233.83 244.71 230.37 250.01 228.39 255.26
  C 226.40 260.57 225.03 264.40 228.24 268.91
  A 1.93 1.85 85.4 0 0 228.89 269.49
  Z"
/>
<path fill="#74706a" d="
  M 228.24 268.91
  C 225.03 264.40 226.40 260.57 228.39 255.26
  C 230.37 250.01 233.83 244.71 240.09 244.35
  Q 253.10 243.60 264.00 243.92
  C 270.93 244.12 278.69 245.71 283.42 251.22
  C 287.33 255.77 288.69 260.42 286.11 265.94
  C 283.75 271.00 277.28 271.99 272.03 272.27
  Q 271.20 272.31 258.25 272.59
  Q 254.00 272.68 249.75 272.41
  C 243.84 272.03 241.23 271.55 237.16 271.67
  Q 233.18 271.78 228.89 269.49
  A 1.93 1.85 85.4 0 1 228.24 268.91
  Z"
/>
<path fill="#46423e" d="
  M 189.42 251.20
  Q 189.70 251.96 189.50 252.75
  Q 189.17 252.23 189.42 251.20
  Z"
/>
<path fill="#65605b" d="
  M 322.71 316.91
  Q 320.20 319.16 317.99 321.37
  Q 315.34 324.01 313.13 325.66
  Q 307.63 329.76 306.06 331.31
  Q 301.90 335.43 298.82 337.29
  A 1.19 1.19 0.0 0 1 297.07 336.65
  L 296.36 334.44
  A 4.31 3.76 -72.1 0 0 296.09 333.81
  C 292.34 326.59 291.42 319.89 288.60 313.20
  A 0.72 0.72 0.0 0 1 289.01 312.25
  Q 296.71 309.36 303.33 306.54
  Q 305.84 305.47 307.66 304.34
  Q 309.30 303.33 311.60 302.13
  A 2.21 2.03 -77.1 0 0 312.08 301.80
  L 318.45 295.92
  Q 321.38 299.04 321.85 304.20
  Q 322.64 313.00 322.71 316.91
  Z"
/>
<path fill="#65605b" d="
  M 194.44 296.28
  Q 197.82 300.90 199.57 301.92
  C 203.77 304.38 208.01 307.12 212.49 308.78
  Q 224.07 313.08 228.07 313.87
  Q 236.12 315.47 249.50 315.63
  Q 262.89 315.79 275.79 314.77
  C 279.49 314.47 284.15 313.68 286.73 312.96
  A 0.62 0.62 0.0 0 1 287.46 313.28
  Q 287.53 313.42 287.35 314.10
  Q 287.28 314.33 287.45 314.93
  Q 291.28 328.21 292.65 330.89
  C 294.37 334.26 296.40 338.24 294.47 341.73
  Q 293.04 344.32 287.75 348.93
  Q 279.03 352.08 270.11 354.33
  C 256.32 357.81 243.48 356.77 229.66 352.43
  L 218.33 339.96
  A 2.03 2.02 41.2 0 1 218.16 337.45
  Q 221.74 332.28 223.93 326.50
  Q 226.66 319.31 227.90 315.46
  A 0.30 0.29 -70.6 0 0 227.73 315.10
  L 227.46 315.00
  A 0.62 0.62 0.0 0 0 226.64 315.38
  Q 224.20 322.51 221.44 329.38
  C 220.29 332.22 218.33 334.89 216.98 337.28
  A 0.66 0.66 0.0 0 1 216.17 337.57
  Q 213.64 336.62 211.69 334.34
  Q 209.43 331.69 204.46 328.31
  A 6.77 6.16 -2.7 0 1 203.42 327.45
  Q 200.41 324.41 196.52 322.80
  Q 194.67 321.87 192.85 320.38
  Q 190.84 318.73 191.00 316.00
  Q 191.54 306.95 192.51 300.77
  Q 192.90 298.29 194.44 296.28
  Z"
/>
<path fill="#000407" d="
  M 229.66 352.43
  Q 230.73 353.89 230.99 355.49
  A 2.41 2.34 -70.0 0 0 231.52 356.67
  L 233.07 358.49
  A 1.11 0.61 29.0 0 1 233.17 358.65
  Q 235.63 364.20 240.86 366.25
  Q 239.50 370.86 238.07 375.50
  C 236.26 381.36 235.60 386.77 234.68 392.31
  A 2.05 1.92 43.1 0 0 234.74 393.23
  Q 237.64 402.32 236.56 410.00
  A 4.47 4.38 41.6 0 0 236.69 411.88
  Q 242.29 430.93 242.97 451.19
  C 243.07 454.20 242.37 457.18 242.44 459.41
  A 7.17 7.07 35.8 0 0 242.76 461.31
  Q 244.90 468.19 243.18 473.31
  Q 241.70 477.70 241.13 482.91
  Q 240.71 486.77 239.72 488.93
  Q 238.05 492.58 235.34 495.78
  L 233.56 490.50
  A 5.17 4.88 21.6 0 0 233.12 489.56
  L 229.98 484.40
  A 0.26 0.26 0.0 0 1 230.37 484.07
  L 231.47 485.03
  Q 233.28 484.13 232.43 481.44
  Q 232.77 480.27 231.71 479.83
  C 230.46 479.30 229.26 478.53 228.51 477.23
  Q 226.13 473.11 221.33 476.37
  A 1.01 0.97 75.2 0 0 220.91 477.13
  L 220.88 477.70
  A 0.69 0.69 0.0 0 1 219.86 478.27
  L 216.87 476.65
  A 3.20 3.16 62.9 0 0 215.81 476.30
  Q 215.51 476.24 205.34 474.92
  Q 199.31 474.14 195.13 474.69
  Q 189.92 475.37 185.05 476.79
  Q 184.30 477.00 183.66 476.27
  Q 182.98 475.51 181.70 475.96
  Q 179.63 476.69 178.30 478.04
  Q 174.23 482.15 169.97 487.00
  L 170.08 481.14
  L 176.63 471.09
  Q 188.29 463.61 204.89 465.45
  Q 210.14 466.03 215.06 466.41
  L 224.80 469.50
  Q 228.07 471.23 230.49 474.18
  A 0.79 0.78 -27.1 0 0 231.30 474.44
  C 239.74 472.18 240.66 463.55 241.09 455.57
  Q 241.96 439.57 238.59 428.05
  Q 236.57 421.11 231.78 418.27
  A 1.52 1.48 56.3 0 0 230.84 418.07
  C 228.83 418.34 226.73 416.33 225.44 415.00
  A 1.21 1.18 -63.2 0 1 225.11 413.96
  C 225.93 408.63 227.02 403.71 226.42 398.24
  A 0.32 0.31 79.3 0 1 226.65 397.90
  Q 226.79 397.86 227.00 397.61
  A 0.20 0.20 0.0 0 0 226.80 397.29
  L 225.52 397.60
  A 0.42 0.40 54.4 0 1 225.20 397.54
  Q 225.02 397.42 224.99 397.40
  A 0.31 0.31 0.0 0 0 224.56 397.72
  Q 224.90 400.81 223.65 403.07
  A 0.70 0.70 0.0 0 1 222.35 402.87
  C 220.09 391.52 205.10 392.22 196.29 394.46
  A 1.40 1.26 -48.1 0 1 196.01 394.49
  L 193.73 394.37
  A 1.01 0.98 19.9 0 0 192.91 394.74
  Q 191.14 396.92 191.10 399.77
  Q 190.99 408.22 191.14 414.52
  A 3.18 2.97 37.8 0 0 191.27 415.33
  Q 191.79 417.00 193.81 418.80
  C 196.43 421.14 199.27 423.41 203.21 423.69
  Q 211.60 424.27 218.70 420.20
  Q 219.35 419.83 221.48 417.57
  A 0.51 0.50 -57.3 0 1 222.04 417.44
  L 222.53 417.62
  A 0.36 0.36 0.0 0 1 222.68 418.18
  L 218.94 422.79
  C 211.44 426.37 201.27 427.16 194.24 422.02
  Q 190.92 419.30 189.83 415.43
  A 0.68 0.67 -10.3 0 0 189.12 414.94
  L 180.63 415.69
  L 182.21 412.55
  Q 184.87 413.77 187.29 414.77
  Q 187.70 414.94 188.05 414.86
  A 0.19 0.19 0.0 0 0 188.06 414.49
  Q 187.55 414.34 187.37 414.12
  Q 186.36 412.85 183.71 408.68
  Q 183.23 402.20 184.50 395.25
  Q 185.19 391.50 187.49 388.58
  L 189.90 391.74
  A 1.32 1.31 -33.2 0 0 191.59 392.09
  Q 200.59 387.07 211.32 388.71
  C 216.83 389.55 221.03 392.16 224.03 396.58
  A 1.49 1.48 -23.9 0 0 225.62 397.19
  L 229.82 396.16
  A 1.51 1.51 0.0 0 0 230.91 395.11
  C 233.53 385.86 235.40 374.16 232.65 364.68
  A 3.45 3.43 -80.2 0 0 231.37 362.86
  C 227.02 359.67 223.49 357.24 219.55 353.81
  Q 207.57 343.36 197.38 335.12
  C 194.70 332.95 192.61 330.14 190.42 327.41
  C 191.54 325.57 194.54 325.06 196.45 324.19
  Q 196.85 324.01 196.52 322.80
  Q 200.41 324.41 203.42 327.45
  A 6.77 6.16 -2.7 0 0 204.46 328.31
  Q 209.43 331.69 211.69 334.34
  Q 213.64 336.62 216.17 337.57
  A 0.66 0.66 0.0 0 0 216.98 337.28
  C 218.33 334.89 220.29 332.22 221.44 329.38
  Q 224.20 322.51 226.64 315.38
  A 0.62 0.62 0.0 0 1 227.46 315.00
  L 227.73 315.10
  A 0.30 0.29 -70.6 0 1 227.90 315.46
  Q 226.66 319.31 223.93 326.50
  Q 221.74 332.28 218.16 337.45
  A 2.03 2.02 41.2 0 0 218.33 339.96
  L 229.66 352.43
  Z"
/>
<path fill="#65605b" d="
  M 190.42 327.41
  C 192.61 330.14 194.70 332.95 197.38 335.12
  Q 207.57 343.36 219.55 353.81
  C 223.49 357.24 227.02 359.67 231.37 362.86
  A 3.45 3.43 -80.2 0 1 232.65 364.68
  C 235.40 374.16 233.53 385.86 230.91 395.11
  A 1.51 1.51 0.0 0 1 229.82 396.16
  L 225.62 397.19
  A 1.49 1.48 -23.9 0 1 224.03 396.58
  C 221.03 392.16 216.83 389.55 211.32 388.71
  Q 200.59 387.07 191.59 392.09
  A 1.32 1.31 -33.2 0 1 189.90 391.74
  L 187.49 388.58
  Q 186.74 387.10 186.04 384.25
  Q 180.03 359.87 186.33 336.05
  Q 187.43 331.91 190.42 327.41
  Z"
/>
<path fill="#65605b" d="
  M 326.22 389.26
  Q 325.01 390.02 323.61 392.13
  A 1.21 1.20 37.7 0 1 321.79 392.36
  C 318.32 389.20 314.65 388.60 309.58 388.33
  Q 297.68 387.70 289.50 396.50
  Q 284.42 394.58 283.35 388.53
  Q 280.81 374.14 282.11 364.94
  A 0.33 0.33 0.0 0 0 281.82 364.56
  L 281.79 364.56
  A 0.33 0.33 0.0 0 0 281.42 364.86
  Q 280.06 377.53 282.21 389.45
  Q 282.80 392.74 284.52 396.52
  C 277.64 389.29 279.20 374.16 281.28 365.24
  A 1.63 1.60 77.8 0 1 281.83 364.37
  Q 286.59 360.53 292.62 355.85
  C 298.38 351.38 305.51 344.23 312.32 338.75
  Q 314.95 336.64 318.77 333.01
  Q 321.23 330.67 323.70 327.73
  Q 329.31 338.02 330.13 350.50
  Q 331.43 370.22 326.22 389.26
  Z"
/>
<path fill="#46423e" d="
  M 287.75 348.93
  L 284.72 352.27
  A 1.92 1.39 -57.8 0 0 284.55 352.48
  L 278.01 361.74
  A 1.08 0.96 -4.7 0 1 277.79 361.97
  L 272.22 366.15
  Q 262.15 368.17 252.78 367.85
  C 249.02 367.73 244.94 366.81 240.86 366.25
  Q 235.63 364.20 233.17 358.65
  A 1.11 0.61 29.0 0 0 233.07 358.49
  L 231.52 356.67
  A 2.41 2.34 -70.0 0 1 230.99 355.49
  Q 230.73 353.89 229.66 352.43
  C 243.48 356.77 256.32 357.81 270.11 354.33
  Q 279.03 352.08 287.75 348.93
  Z"
/>
<path fill="#46423e" d="
  M 289.50 396.50
  L 287.50 397.02
  L 284.52 396.52
  Q 282.80 392.74 282.21 389.45
  Q 280.06 377.53 281.42 364.86
  A 0.33 0.33 0.0 0 1 281.79 364.56
  L 281.82 364.56
  A 0.33 0.33 0.0 0 1 282.11 364.94
  Q 280.81 374.14 283.35 388.53
  Q 284.42 394.58 289.50 396.50
  Z"
/>
<path fill="#000407" d="
  M 326.22 389.26
  Q 329.77 394.61 329.81 399.49
  Q 329.84 404.97 330.14 410.24
  Q 328.77 410.09 328.54 411.40
  A 1.01 0.95 -20.1 0 1 328.30 411.88
  Q 326.82 413.56 325.02 413.83
  A 1.68 1.68 0.0 0 0 323.76 414.75
  L 321.54 419.22
  A 0.28 0.25 -14.9 0 1 321.48 419.31
  Q 319.77 421.25 317.38 422.67
  Q 311.69 425.48 304.86 424.52
  Q 299.23 424.69 294.47 422.23
  A 3.26 3.22 -8.4 0 1 293.68 421.65
  L 289.45 417.43
  A 1.04 1.02 -26.2 0 0 288.58 417.14
  Q 287.61 417.27 286.81 417.98
  L 285.46 417.95
  Q 287.40 417.42 288.43 416.20
  A 1.26 1.24 -32.0 0 0 288.69 415.12
  Q 287.74 410.79 288.01 406.31
  C 288.18 403.49 287.80 400.07 287.50 397.02
  L 289.50 396.50
  Q 297.68 387.70 309.58 388.33
  C 314.65 388.60 318.32 389.20 321.79 392.36
  A 1.21 1.20 37.7 0 0 323.61 392.13
  Q 325.01 390.02 326.22 389.26
  Z
  M 292.61 400.46
  L 292.20 412.84
  Q 291.44 418.59 297.28 420.83
  C 304.01 423.42 312.22 424.21 318.48 419.92
  C 320.99 418.19 322.50 415.85 322.64 413.01
  Q 323.01 405.00 322.56 398.47
  Q 322.35 395.47 319.58 394.78
  C 311.67 392.80 302.46 391.95 295.65 396.64
  Q 293.78 397.93 292.61 400.46
  Z"
/>
<path fill="#65605b" d="
  M 224.80 469.50
  Q 220.89 465.90 215.57 465.79
  Q 215.55 465.79 215.56 465.79
  C 215.66 465.83 215.78 465.85 215.86 465.89
  A 0.14 0.14 0.0 0 1 215.84 466.15
  L 215.06 466.41
  Q 210.14 466.03 204.89 465.45
  Q 188.29 463.61 176.63 471.09
  Q 174.01 472.32 171.24 471.82
  A 0.82 0.82 0.0 0 1 170.57 471.03
  L 170.52 460.92
  Q 171.17 443.84 174.68 429.94
  Q 176.29 423.59 180.63 415.69
  L 189.12 414.94
  A 0.68 0.67 -10.3 0 1 189.83 415.43
  Q 190.92 419.30 194.24 422.02
  C 191.31 429.16 187.88 439.71 190.97 447.00
  Q 195.22 457.00 206.30 457.16
  C 214.24 457.28 218.92 450.41 219.93 443.22
  Q 221.17 434.50 218.94 422.79
  L 222.68 418.18
  A 0.36 0.36 0.0 0 0 222.53 417.62
  L 222.04 417.44
  A 0.51 0.50 -57.3 0 0 221.48 417.57
  Q 219.35 419.83 218.70 420.20
  Q 211.60 424.27 203.21 423.69
  C 199.27 423.41 196.43 421.14 193.81 418.80
  Q 191.79 417.00 191.27 415.33
  A 3.18 2.97 37.8 0 1 191.14 414.52
  Q 190.99 408.22 191.10 399.77
  Q 191.14 396.92 192.91 394.74
  A 1.01 0.98 19.9 0 1 193.73 394.37
  L 196.01 394.49
  A 1.40 1.26 -48.1 0 0 196.29 394.46
  C 205.10 392.22 220.09 391.52 222.35 402.87
  A 0.70 0.70 0.0 0 0 223.65 403.07
  Q 224.90 400.81 224.56 397.72
  A 0.31 0.31 0.0 0 1 224.99 397.40
  Q 225.02 397.42 225.20 397.54
  A 0.42 0.40 54.4 0 0 225.52 397.60
  L 226.80 397.29
  A 0.20 0.20 0.0 0 1 227.00 397.61
  Q 226.79 397.86 226.65 397.90
  A 0.32 0.31 79.3 0 0 226.42 398.24
  C 227.02 403.71 225.93 408.63 225.11 413.96
  A 1.21 1.18 -63.2 0 0 225.44 415.00
  C 226.73 416.33 228.83 418.34 230.84 418.07
  A 1.52 1.48 56.3 0 1 231.78 418.27
  Q 236.57 421.11 238.59 428.05
  Q 241.96 439.57 241.09 455.57
  C 240.66 463.55 239.74 472.18 231.30 474.44
  A 0.79 0.78 -27.1 0 1 230.49 474.18
  Q 228.07 471.23 224.80 469.50
  Z"
/>
<path fill="#74706a" d="
  M 292.20 412.84
  Q 293.45 406.59 292.61 400.46
  Q 293.78 397.93 295.65 396.64
  C 302.46 391.95 311.67 392.80 319.58 394.78
  Q 322.35 395.47 322.56 398.47
  Q 323.01 405.00 322.64 413.01
  C 322.50 415.85 320.99 418.19 318.48 419.92
  C 312.22 424.21 304.01 423.42 297.28 420.83
  Q 291.44 418.59 292.20 412.84
  Z"
/>
<path fill="#534f48" d="
  M 292.61 400.46
  Q 293.45 406.59 292.20 412.84
  L 292.61 400.46
  Z"
/>
<path fill="#46423e" d="
  M 182.21 412.55
  Q 183.33 410.61 183.71 408.68
  Q 186.36 412.85 187.37 414.12
  Q 187.55 414.34 188.06 414.49
  A 0.19 0.19 0.0 0 1 188.05 414.86
  Q 187.70 414.94 187.29 414.77
  Q 184.87 413.77 182.21 412.55
  Z"
/>
<path fill="#65605b" d="
  M 330.14 410.24
  Q 337.47 422.50 340.37 436.88
  Q 342.97 449.83 343.44 461.64
  L 342.51 477.09
  A 0.39 0.39 0.0 0 1 341.81 477.31
  Q 340.38 475.42 339.23 473.07
  C 337.10 468.71 331.00 467.09 326.36 466.17
  Q 308.10 462.54 290.91 468.49
  C 280.36 453.17 281.76 434.91 286.81 417.98
  Q 287.61 417.27 288.58 417.14
  A 1.04 1.02 -26.2 0 1 289.45 417.43
  L 293.68 421.65
  A 3.26 3.22 -8.4 0 0 294.47 422.23
  Q 299.23 424.69 304.86 424.52
  C 303.62 432.48 303.14 441.60 306.21 449.12
  C 307.42 452.06 310.38 456.03 313.93 455.24
  C 319.08 454.08 320.46 446.27 320.34 441.80
  Q 320.07 432.09 317.38 422.67
  Q 319.77 421.25 321.48 419.31
  A 0.28 0.25 -14.9 0 0 321.54 419.22
  L 323.76 414.75
  A 1.68 1.68 0.0 0 1 325.02 413.83
  Q 326.82 413.56 328.30 411.88
  A 1.01 0.95 -20.1 0 0 328.54 411.40
  Q 328.77 410.09 330.14 410.24
  Z"
/>
<path fill="#46423e" d="
  M 285.46 417.95
  L 286.81 417.98
  C 281.76 434.91 280.36 453.17 290.91 468.49
  Q 284.54 471.24 281.37 476.80
  A 0.75 0.74 -70.1 0 1 280.61 477.16
  C 275.66 476.41 274.55 470.63 273.86 466.52
  Q 271.06 450.07 273.40 433.51
  Q 274.56 425.31 279.33 418.37
  A 0.88 0.88 0.0 0 1 280.06 417.98
  L 285.46 417.95
  Z"
/>
<path fill="#74706a" d="
  M 194.24 422.02
  C 201.27 427.16 211.44 426.37 218.94 422.79
  Q 221.17 434.50 219.93 443.22
  C 218.92 450.41 214.24 457.28 206.30 457.16
  Q 195.22 457.00 190.97 447.00
  C 187.88 439.71 191.31 429.16 194.24 422.02
  Z"
/>
<path fill="#7c7972" d="
  M 317.38 422.67
  Q 320.07 432.09 320.34 441.80
  C 320.46 446.27 319.08 454.08 313.93 455.24
  C 310.38 456.03 307.42 452.06 306.21 449.12
  C 303.14 441.60 303.62 432.48 304.86 424.52
  Q 311.69 425.48 317.38 422.67
  Z"
/>
<path fill="#46423e" d="
  M 170.52 460.92
  L 170.57 471.03
  A 0.82 0.82 0.0 0 0 171.24 471.82
  Q 174.01 472.32 176.63 471.09
  L 170.08 481.14
  C 168.89 474.81 168.24 467.24 170.52 460.92
  Z"
/>
<path fill="#46423e" d="
  M 224.80 469.50
  L 215.06 466.41
  L 215.84 466.15
  A 0.14 0.14 0.0 0 0 215.86 465.89
  C 215.78 465.85 215.66 465.83 215.56 465.79
  Q 215.55 465.79 215.57 465.79
  Q 220.89 465.90 224.80 469.50
  Z"
/>
<path fill="#534f48" d="
  M 343.90 486.34
  L 345.98 499.20
  C 333.50 493.86 323.08 490.68 309.07 492.37
  C 304.89 492.87 298.92 494.49 296.54 498.35
  C 293.11 503.91 300.27 509.22 303.81 512.00
  L 293.71 512.00
  Q 286.06 509.91 281.35 502.45
  Q 282.47 498.28 283.93 494.09
  C 285.25 490.27 285.67 486.97 286.04 483.70
  A 3.10 3.10 0.0 0 1 288.20 481.09
  L 290.51 480.39
  A 3.23 3.19 -70.1 0 0 291.37 479.98
  Q 294.89 477.59 297.94 476.72
  Q 313.32 472.33 329.26 475.45
  Q 331.47 475.89 333.21 476.54
  Q 334.53 477.04 336.41 478.98
  Q 339.93 482.59 343.90 486.34
  Z"
/>
<path fill="#534f48" d="
  M 232.43 481.44
  Q 232.34 483.35 231.47 485.03
  L 230.37 484.07
  A 0.26 0.26 0.0 0 0 229.98 484.40
  L 233.12 489.56
  A 5.17 4.88 21.6 0 1 233.56 490.50
  L 235.34 495.78
  Q 233.74 502.70 227.77 508.27
  Q 224.63 511.21 221.28 512.00
  L 203.49 512.00
  C 208.75 509.57 219.04 502.96 213.41 497.08
  C 211.19 494.75 207.58 494.27 204.00 493.67
  C 197.09 492.53 185.46 490.67 181.06 497.10
  C 178.35 501.06 180.75 506.15 184.27 508.75
  Q 186.88 510.67 190.07 512.00
  L 175.34 512.00
  Q 167.73 508.25 168.13 497.74
  Q 168.28 493.70 169.97 487.00
  Q 174.23 482.15 178.30 478.04
  Q 179.63 476.69 181.70 475.96
  Q 182.98 475.51 183.66 476.27
  Q 184.30 477.00 185.05 476.79
  Q 189.92 475.37 195.13 474.69
  Q 199.31 474.14 205.34 474.92
  Q 215.51 476.24 215.81 476.30
  A 3.20 3.16 62.9 0 1 216.87 476.65
  L 219.86 478.27
  A 0.69 0.69 0.0 0 0 220.88 477.70
  L 220.91 477.13
  A 1.01 0.97 75.2 0 1 221.33 476.37
  Q 226.13 473.11 228.51 477.23
  C 229.26 478.53 230.46 479.30 231.71 479.83
  Q 232.77 480.27 232.43 481.44
  Z
  M 212.86 476.13
  A 0.11 0.11 0.0 0 0 212.75 476.02
  A 0.11 0.11 0.0 0 0 212.64 476.13
  A 0.11 0.11 0.0 0 0 212.75 476.24
  A 0.11 0.11 0.0 0 0 212.86 476.13
  Z
  M 216.2902 477.7385
  A 0.33 0.12 -178.0 0 0 216.6158 477.8699
  A 0.33 0.12 -178.0 0 0 216.9498 477.7615
  A 0.33 0.12 -178.0 0 0 216.6242 477.6301
  A 0.33 0.12 -178.0 0 0 216.2902 477.7385
  Z"
/>
<circle fill="#46423e" cx="212.75" cy="476.13" r="0.11"/>
<ellipse fill="#46423e" cx="0.00" cy="0.00" transform="translate(216.62,477.75) rotate(-178.0)" rx="0.33" ry="0.12"/>
<path fill="#46423e" d="
  M 231.47 485.03
  Q 232.34 483.35 232.43 481.44
  Q 233.28 484.13 231.47 485.03
  Z"
/>
<path fill="#74706a" d="
  M 345.98 499.20
  Q 345.56 509.15 338.67 512.00
  L 303.81 512.00
  C 300.27 509.22 293.11 503.91 296.54 498.35
  C 298.92 494.49 304.89 492.87 309.07 492.37
  C 323.08 490.68 333.50 493.86 345.98 499.20
  Z"
/>
<path fill="#74706a" d="
  M 203.49 512.00
  L 190.07 512.00
  Q 186.88 510.67 184.27 508.75
  C 180.75 506.15 178.35 501.06 181.06 497.10
  C 185.46 490.67 197.09 492.53 204.00 493.67
  C 207.58 494.27 211.19 494.75 213.41 497.08
  C 219.04 502.96 208.75 509.57 203.49 512.00
  Z"
/>
</svg>
